<svg width="19" height="16" viewBox="0 0 19 16" fill="none" xmlns="http://www.w3.org/2000/svg">
<path d="M8.99815 4.83329C9.48433 4.83329 9.96574 4.92217 10.4149 5.09486C10.8641 5.26755 11.2722 5.52066 11.616 5.83975C11.9598 6.15884 12.2325 6.53765 12.4185 6.95456C12.6046 7.37147 12.7003 7.81831 12.7003 8.26956C12.7003 8.72082 12.6046 9.16766 12.4185 9.58457C12.2325 10.0015 11.9598 10.3803 11.616 10.6994C11.2722 11.0185 10.8641 11.2716 10.4149 11.4443C9.96574 11.617 9.48433 11.7058 8.99815 11.7058C8.01627 11.7058 7.0746 11.3438 6.38031 10.6994C5.68601 10.055 5.29596 9.18092 5.29596 8.26956C5.29596 7.35821 5.68601 6.48418 6.38031 5.83975C7.0746 5.19532 8.01627 4.83329 8.99815 4.83329V4.83329ZM8.99815 6.12173C8.38443 6.12173 7.79584 6.34802 7.36187 6.75082C6.92791 7.15361 6.68411 7.69992 6.68411 8.26956C6.68411 8.8392 6.92791 9.38551 7.36187 9.78831C7.79584 10.1911 8.38443 10.4174 8.99815 10.4174C9.61187 10.4174 10.2005 10.1911 10.6344 9.78831C11.0684 9.38551 11.3122 8.8392 11.3122 8.26956C11.3122 7.69992 11.0684 7.15361 10.6344 6.75082C10.2005 6.34802 9.61187 6.12173 8.99815 6.12173ZM8.99815 1.82349C13.2681 1.82349 16.9522 4.52922 17.9753 8.3211C17.9998 8.4039 18.0061 8.4904 17.9941 8.57552C17.982 8.66065 17.9517 8.74267 17.905 8.81678C17.8583 8.89088 17.7961 8.95557 17.7221 9.00705C17.6481 9.05853 17.5637 9.09575 17.4739 9.11654C17.3842 9.13732 17.2909 9.14124 17.1995 9.12807C17.1081 9.1149 17.0204 9.08491 16.9417 9.03985C16.8629 8.99479 16.7947 8.93558 16.741 8.8657C16.6872 8.79581 16.6491 8.71667 16.6288 8.6329C16.1993 7.0562 15.2152 5.65761 13.8325 4.65871C12.4498 3.65981 10.7475 3.11771 8.99529 3.1183C7.24312 3.11889 5.54125 3.66214 4.15932 4.66198C2.77739 5.66181 1.79441 7.06107 1.36612 8.63806C1.32033 8.80272 1.20625 8.9439 1.04876 9.0308C0.891264 9.11771 0.70314 9.14329 0.525411 9.10196C0.347682 9.06063 0.194768 8.95576 0.100017 8.8102C0.00526648 8.66465 -0.0236336 8.49022 0.0196198 8.32497C0.521705 6.46762 1.67784 4.81917 3.30448 3.64129C4.93112 2.46342 6.93505 1.82363 8.99815 1.82349Z" fill="black"/>
<path d="M0.898438 15L17.9984 1" stroke="black" stroke-linecap="round"/>
</svg>
