<svg width="46" height="46" viewBox="0 0 46 46" fill="none" xmlns="http://www.w3.org/2000/svg">
<circle cx="23" cy="23" r="23" fill="#E69E01"/>
<path d="M22.5013 12.083C19.6294 12.083 17.293 14.4195 17.293 17.2913V19.3747H16.2513C15.1023 19.3747 14.168 20.3091 14.168 21.458V30.833C14.168 31.982 15.1023 32.9163 16.2513 32.9163H28.7513C29.9003 32.9163 30.8346 31.982 30.8346 30.833V21.458C30.8346 20.3091 29.9003 19.3747 28.7513 19.3747H27.7096V17.2913C27.7096 14.4195 25.3732 12.083 22.5013 12.083ZM19.3763 17.2913C19.3763 15.5684 20.7784 14.1663 22.5013 14.1663C24.2242 14.1663 25.6263 15.5684 25.6263 17.2913V19.3747H19.3763V17.2913ZM28.7534 30.833H23.543V28.4601C24.1628 28.0986 24.5846 27.4341 24.5846 26.6663C24.5846 25.5174 23.6503 24.583 22.5013 24.583C21.3523 24.583 20.418 25.5174 20.418 26.6663C20.418 27.433 20.8398 28.0986 21.4596 28.4601V30.833H16.2513V21.458H28.7513L28.7534 30.833V30.833Z" fill="white"/>
</svg>
