<svg width="46" height="46" viewBox="0 0 46 46" fill="none" xmlns="http://www.w3.org/2000/svg">
<circle cx="23" cy="23" r="23" fill="#E69E01"/>
<g clip-path="url(#clip0_87_6)">
<path d="M22.7 23.0498C25.8275 23.0498 28.3629 20.4866 28.3629 17.3247C28.3629 14.1628 25.8275 11.5996 22.7 11.5996C19.5725 11.5996 17.0371 14.1628 17.0371 17.3247C17.0371 20.4866 19.5725 23.0498 22.7 23.0498Z" stroke="white" stroke-width="2"/>
<path d="M28.3619 21.9053H28.7606C29.5886 21.9055 30.388 22.2114 31.0087 22.7655C31.6293 23.3196 32.0285 24.0838 32.1311 24.9144L32.574 28.4914C32.6138 28.8137 32.5854 29.1408 32.4906 29.4511C32.3958 29.7614 32.2369 30.0477 32.0243 30.2912C31.8116 30.5346 31.5502 30.7295 31.2574 30.863C30.9646 30.9965 30.647 31.0655 30.3258 31.0654H15.0723C14.7511 31.0655 14.4335 30.9965 14.1407 30.863C13.8479 30.7295 13.5865 30.5346 13.3738 30.2912C13.1612 30.0477 13.0023 29.7614 12.9075 29.4511C12.8127 29.1408 12.7843 28.8137 12.8241 28.4914L13.2658 24.9144C13.3685 24.0834 13.768 23.3189 14.3892 22.7647C15.0103 22.2106 15.8102 21.905 16.6386 21.9053H17.0362" stroke="white" stroke-width="2" stroke-linecap="round" stroke-linejoin="round"/>
</g>
<defs>
<clipPath id="clip0_87_6">
<rect width="27.1818" height="24.0455" fill="white" transform="translate(9.4082 10.4541)"/>
</clipPath>
</defs>
</svg>
