<svg width="16" height="12" viewBox="0 0 16 12" fill="none" xmlns="http://www.w3.org/2000/svg">
<path d="M14.3702 0.120117C15.1817 0.120117 15.8402 0.778248 15.8402 1.59012C15.8402 2.05255 15.6227 2.48743 15.2522 2.76612L8.58816 7.76412C8.41832 7.89087 8.21208 7.95935 8.00016 7.95935C7.78824 7.95935 7.58199 7.89087 7.41216 7.76412L0.748156 2.76612C0.377992 2.48743 0.160156 2.05255 0.160156 1.59012C0.160156 0.778248 0.818287 0.120117 1.63016 0.120117H14.3702ZM6.82416 8.54812C7.16322 8.80304 7.57595 8.94088 8.00016 8.94088C8.42437 8.94088 8.83709 8.80304 9.17616 8.54812L15.8402 3.55012V9.92012C15.8402 11.0012 14.9612 11.8801 13.8802 11.8801H2.12016C1.03756 11.8801 0.160156 11.0012 0.160156 9.92012V3.55012L6.82416 8.54812Z" fill="#197E00"/>
</svg>
