<svg width="71" height="71" viewBox="0 0 71 71" fill="none" xmlns="http://www.w3.org/2000/svg">
<path d="M26.6252 14.7906C25.8406 14.7906 25.0881 15.1023 24.5333 15.6571C23.9785 16.2119 23.6668 16.9643 23.6668 17.7489C23.6668 18.5335 23.9785 19.286 24.5333 19.8408C25.0881 20.3956 25.8406 20.7073 26.6252 20.7073C27.4098 20.7073 28.1622 20.3956 28.717 19.8408C29.2718 19.286 29.5835 18.5335 29.5835 17.7489C29.5835 16.9643 29.2718 16.2119 28.717 15.6571C28.1622 15.1023 27.4098 14.7906 26.6252 14.7906ZM18.2531 14.7906C18.8643 13.0584 19.9977 11.5584 21.4972 10.4975C22.9966 9.43646 24.7883 8.8667 26.6252 8.8667C28.462 8.8667 30.2537 9.43646 31.7531 10.4975C33.2526 11.5584 34.386 13.0584 34.9972 14.7906H56.2085C56.9931 14.7906 57.7456 15.1023 58.3004 15.6571C58.8551 16.2119 59.1668 16.9643 59.1668 17.7489C59.1668 18.5335 58.8551 19.286 58.3004 19.8408C57.7456 20.3956 56.9931 20.7073 56.2085 20.7073H34.9972C34.386 22.4395 33.2526 23.9395 31.7531 25.0004C30.2537 26.0614 28.462 26.6312 26.6252 26.6312C24.7883 26.6312 22.9966 26.0614 21.4972 25.0004C19.9977 23.9395 18.8643 22.4395 18.2531 20.7073H14.7918C14.0072 20.7073 13.2548 20.3956 12.7 19.8408C12.1452 19.286 11.8335 18.5335 11.8335 17.7489C11.8335 16.9643 12.1452 16.2119 12.7 15.6571C13.2548 15.1023 14.0072 14.7906 14.7918 14.7906H18.2531ZM44.3752 32.5406C43.5906 32.5406 42.8381 32.8523 42.2833 33.4071C41.7285 33.9619 41.4168 34.7143 41.4168 35.4989C41.4168 36.2835 41.7285 37.036 42.2833 37.5908C42.8381 38.1456 43.5906 38.4573 44.3752 38.4573C45.1598 38.4573 45.9122 38.1456 46.467 37.5908C47.0218 37.036 47.3335 36.2835 47.3335 35.4989C47.3335 34.7143 47.0218 33.9619 46.467 33.4071C45.9122 32.8523 45.1598 32.5406 44.3752 32.5406ZM36.0031 32.5406C36.6143 30.8084 37.7477 29.3084 39.2472 28.2474C40.7466 27.1865 42.5383 26.6167 44.3752 26.6167C46.212 26.6167 48.0037 27.1865 49.5031 28.2474C51.0026 29.3084 52.136 30.8084 52.7472 32.5406H56.2085C56.9931 32.5406 57.7456 32.8523 58.3004 33.4071C58.8551 33.9619 59.1668 34.7143 59.1668 35.4989C59.1668 36.2835 58.8551 37.036 58.3004 37.5908C57.7456 38.1456 56.9931 38.4573 56.2085 38.4573H52.7472C52.136 40.1895 51.0026 41.6895 49.5031 42.7504C48.0037 43.8114 46.212 44.3812 44.3752 44.3812C42.5383 44.3812 40.7466 43.8114 39.2472 42.7504C37.7477 41.6895 36.6143 40.1895 36.0031 38.4573H14.7918C14.0072 38.4573 13.2548 38.1456 12.7 37.5908C12.1452 37.036 11.8335 36.2835 11.8335 35.4989C11.8335 34.7143 12.1452 33.9619 12.7 33.4071C13.2548 32.8523 14.0072 32.5406 14.7918 32.5406H36.0031ZM26.6252 50.2906C25.8406 50.2906 25.0881 50.6023 24.5333 51.1571C23.9785 51.7119 23.6668 52.4644 23.6668 53.2489C23.6668 54.0335 23.9785 54.786 24.5333 55.3408C25.0881 55.8956 25.8406 56.2073 26.6252 56.2073C27.4098 56.2073 28.1622 55.8956 28.717 55.3408C29.2718 54.786 29.5835 54.0335 29.5835 53.2489C29.5835 52.4644 29.2718 51.7119 28.717 51.1571C28.1622 50.6023 27.4098 50.2906 26.6252 50.2906ZM18.2531 50.2906C18.8643 48.5584 19.9977 47.0584 21.4972 45.9974C22.9966 44.9365 24.7883 44.3667 26.6252 44.3667C28.462 44.3667 30.2537 44.9365 31.7531 45.9974C33.2526 47.0584 34.386 48.5584 34.9972 50.2906H56.2085C56.9931 50.2906 57.7456 50.6023 58.3004 51.1571C58.8551 51.7119 59.1668 52.4644 59.1668 53.2489C59.1668 54.0335 58.8551 54.786 58.3004 55.3408C57.7456 55.8956 56.9931 56.2073 56.2085 56.2073H34.9972C34.386 57.9395 33.2526 59.4395 31.7531 60.5004C30.2537 61.5614 28.462 62.1312 26.6252 62.1312C24.7883 62.1312 22.9966 61.5614 21.4972 60.5004C19.9977 59.4395 18.8643 57.9395 18.2531 56.2073H14.7918C14.0072 56.2073 13.2548 55.8956 12.7 55.3408C12.1452 54.786 11.8335 54.0335 11.8335 53.2489C11.8335 52.4644 12.1452 51.7119 12.7 51.1571C13.2548 50.6023 14.0072 50.2906 14.7918 50.2906H18.2531Z" fill="#E49A01"/>
</svg>
