<svg width="25" height="24" viewBox="0 0 25 24" fill="none" xmlns="http://www.w3.org/2000/svg">
<g clip-path="url(#clip0_841_368)">
<path d="M1.38867 6.74268H2.77756V8.20708H1.38867V6.74268Z" fill="#4E4E4E"/>
<path d="M4.86046 8.20708H21.5271C21.7113 8.20708 21.8879 8.12994 22.0182 7.99262C22.1484 7.85531 22.2216 7.66907 22.2216 7.47488C22.2216 7.28069 22.1484 7.09445 22.0182 6.95713C21.8879 6.81982 21.7113 6.74268 21.5271 6.74268H4.86046C4.67628 6.74268 4.49965 6.81982 4.36941 6.95713C4.23918 7.09445 4.16602 7.28069 4.16602 7.47488C4.16602 7.66907 4.23918 7.85531 4.36941 7.99262C4.49965 8.12994 4.67628 8.20708 4.86046 8.20708Z" fill="#4E4E4E"/>
<path d="M1.38867 11.1353H2.77756V12.5997H1.38867V11.1353Z" fill="#4E4E4E"/>
<path d="M21.5271 11.1353H4.86046C4.67628 11.1353 4.49965 11.2124 4.36941 11.3497C4.23918 11.487 4.16602 11.6733 4.16602 11.8675C4.16602 12.0616 4.23918 12.2479 4.36941 12.3852C4.49965 12.5225 4.67628 12.5997 4.86046 12.5997H21.5271C21.7113 12.5997 21.8879 12.5225 22.0182 12.3852C22.1484 12.2479 22.2216 12.0616 22.2216 11.8675C22.2216 11.6733 22.1484 11.487 22.0182 11.3497C21.8879 11.2124 21.7113 11.1353 21.5271 11.1353Z" fill="#4E4E4E"/>
<path d="M1.38867 15.5288H2.77756V16.9932H1.38867V15.5288Z" fill="#4E4E4E"/>
<path d="M21.5271 15.5288H4.86046C4.67628 15.5288 4.49965 15.606 4.36941 15.7433C4.23918 15.8806 4.16602 16.0668 4.16602 16.261C4.16602 16.4552 4.23918 16.6414 4.36941 16.7788C4.49965 16.9161 4.67628 16.9932 4.86046 16.9932H21.5271C21.7113 16.9932 21.8879 16.9161 22.0182 16.7788C22.1484 16.6414 22.2216 16.4552 22.2216 16.261C22.2216 16.0668 22.1484 15.8806 22.0182 15.7433C21.8879 15.606 21.7113 15.5288 21.5271 15.5288Z" fill="#4E4E4E"/>
<path d="M1.38867 19.9214H2.77756V21.3858H1.38867V19.9214Z" fill="#4E4E4E"/>
<path d="M21.5271 19.9214H4.86046C4.67628 19.9214 4.49965 19.9985 4.36941 20.1358C4.23918 20.2732 4.16602 20.4594 4.16602 20.6536C4.16602 20.8478 4.23918 21.034 4.36941 21.1713C4.49965 21.3086 4.67628 21.3858 4.86046 21.3858H21.5271C21.7113 21.3858 21.8879 21.3086 22.0182 21.1713C22.1484 21.034 22.2216 20.8478 22.2216 20.6536C22.2216 20.4594 22.1484 20.2732 22.0182 20.1358C21.8879 19.9985 21.7113 19.9214 21.5271 19.9214Z" fill="#4E4E4E"/>
</g>
<defs>
<clipPath id="clip0_841_368">
<rect width="25" height="24" fill="white"/>
</clipPath>
</defs>
</svg>
