<svg width="21" height="20" viewBox="0 0 21 20" fill="none" xmlns="http://www.w3.org/2000/svg">
<path d="M14.7156 2.14569C15.7962 2.1488 16.8317 2.56357 17.5959 3.29943C18.36 4.03528 18.7908 5.03241 18.794 6.07306V13.9269C18.7908 14.9676 18.36 15.9647 17.5959 16.7006C16.8317 17.4364 15.7962 17.8512 14.7156 17.8543H6.55962C5.47895 17.8512 4.44346 17.4364 3.67931 16.7006C2.91515 15.9647 2.48443 14.9676 2.4812 13.9269V6.07306C2.48443 5.03241 2.91515 4.03528 3.67931 3.29943C4.44346 2.56357 5.47895 2.1488 6.55962 2.14569H14.7156ZM14.7156 0.575001H6.55962C3.41932 0.575001 0.850098 3.04906 0.850098 6.07306V13.9269C0.850098 16.9509 3.41932 19.425 6.55962 19.425H14.7156C17.8559 19.425 20.4251 16.9509 20.4251 13.9269V6.07306C20.4251 3.04906 17.8559 0.575001 14.7156 0.575001Z" fill="#E49A01"/>
<path d="M15.9393 6.07188C15.6973 6.07188 15.4608 6.00278 15.2596 5.87333C15.0584 5.74387 14.9016 5.55987 14.809 5.3446C14.7164 5.12933 14.6922 4.89244 14.7394 4.66391C14.7866 4.43538 14.9031 4.22545 15.0742 4.06069C15.2453 3.89593 15.4633 3.78372 15.7006 3.73826C15.9379 3.69281 16.1839 3.71614 16.4075 3.80531C16.631 3.89448 16.8221 4.04548 16.9566 4.23922C17.091 4.43296 17.1627 4.66074 17.1627 4.89375C17.1631 5.04856 17.1317 5.20191 17.0703 5.34499C17.009 5.48808 16.9189 5.61809 16.8052 5.72755C16.6915 5.83702 16.5565 5.92379 16.4079 5.98287C16.2593 6.04196 16.1001 6.07221 15.9393 6.07188ZM10.6379 6.85701C11.2832 6.85701 11.914 7.04128 12.4505 7.3865C12.9871 7.73173 13.4052 8.22241 13.6522 8.7965C13.8991 9.37059 13.9637 10.0023 13.8378 10.6118C13.712 11.2212 13.4012 11.781 12.9449 12.2204C12.4886 12.6598 11.9073 12.959 11.2744 13.0803C10.6415 13.2015 9.9855 13.1393 9.38933 12.9015C8.79316 12.6637 8.28361 12.261 7.9251 11.7443C7.5666 11.2276 7.37525 10.6202 7.37525 9.99882C7.37617 9.16583 7.72021 8.36722 8.33187 7.77821C8.94354 7.1892 9.77287 6.8579 10.6379 6.85701ZM10.6379 5.28632C9.67 5.28632 8.72384 5.5627 7.91907 6.08052C7.1143 6.59833 6.48705 7.33433 6.11666 8.19542C5.74626 9.05652 5.64935 10.004 5.83817 10.9182C6.027 11.8323 6.49309 12.672 7.17749 13.3311C7.86189 13.9901 8.73387 14.4389 9.68317 14.6208C10.6325 14.8026 11.6164 14.7093 12.5106 14.3526C13.4049 13.9959 14.1692 13.3919 14.7069 12.6169C15.2446 11.842 15.5316 10.9309 15.5316 9.99882C15.5316 8.74899 15.016 7.55034 14.0983 6.66658C13.1805 5.78281 11.9358 5.28632 10.6379 5.28632Z" fill="#E49A01"/>
</svg>
