<svg width="17" height="16" viewBox="0 0 17 16" fill="none" xmlns="http://www.w3.org/2000/svg">
<path d="M7.3797 14.8885L0.442376 8.28846C0.337265 8.18846 0.262636 8.08013 0.218489 7.96346C0.175043 7.84679 0.15332 7.72179 0.15332 7.58846C0.15332 7.45513 0.175043 7.33013 0.218489 7.21346C0.262636 7.09679 0.337265 6.98846 0.442376 6.88846L7.3797 0.288461C7.57241 0.105128 7.81311 0.00912821 8.10182 0.00046154C8.39122 -0.00753846 8.64104 0.0884612 8.85126 0.288461C9.06148 0.471795 9.17115 0.700795 9.18026 0.975461C9.18867 1.25079 9.08776 1.48846 8.87754 1.68846L3.7271 6.58846H15.4733C15.7711 6.58846 16.0209 6.68413 16.2227 6.87546C16.4238 7.06746 16.5244 7.30513 16.5244 7.58846C16.5244 7.87179 16.4238 8.10913 16.2227 8.30046C16.0209 8.49246 15.7711 8.58846 15.4733 8.58846H3.7271L8.87754 13.4885C9.07024 13.6718 9.17115 13.9051 9.18026 14.1885C9.18867 14.4718 9.08776 14.7051 8.87754 14.8885C8.68483 15.0885 8.43957 15.1885 8.14176 15.1885C7.84395 15.1885 7.58993 15.0885 7.3797 14.8885Z" fill="#2F353E"/>
</svg>
