<svg width="23" height="21" viewBox="0 0 23 21" fill="none" xmlns="http://www.w3.org/2000/svg">
<path d="M20.8126 18.8404L20.5765 18.6321C19.9067 18.0353 19.3204 17.3509 18.8334 16.5974C18.3017 15.5575 17.9829 14.4218 17.8959 13.2571V9.82652C17.8931 9.40982 17.856 8.99406 17.7848 8.58347C16.6085 8.34169 15.5519 7.70084 14.7939 6.76943C14.0358 5.83801 13.6229 4.67326 13.6251 3.47236V3.03486C12.9001 2.67804 12.1211 2.44341 11.3196 2.34041V1.46541C11.3196 1.21954 11.2219 0.983728 11.048 0.809867C10.8742 0.636005 10.6383 0.53833 10.3925 0.53833C10.1466 0.53833 9.91078 0.636005 9.73692 0.809867C9.56306 0.983728 9.46539 1.21954 9.46539 1.46541V2.37514C7.67075 2.6283 6.02829 3.52218 4.84123 4.89176C3.65418 6.26133 3.0027 8.01412 3.00705 9.82652V13.2571C2.92008 14.4218 2.60134 15.5575 2.06955 16.5974C1.591 17.349 1.01413 18.0333 0.354275 18.6321L0.118164 18.8404V20.7987H20.8126V18.8404Z" fill="#FABB15"/>
<path d="M18.8336 6.94444C20.7512 6.94444 22.3058 5.38988 22.3058 3.47222C22.3058 1.55457 20.7512 0 18.8336 0C16.9159 0 15.3613 1.55457 15.3613 3.47222C15.3613 5.38988 16.9159 6.94444 18.8336 6.94444Z" fill="#FABB15"/>
</svg>
