<svg width="17" height="16" viewBox="0 0 17 16" fill="none" xmlns="http://www.w3.org/2000/svg">
<path d="M9.6203 14.8885L16.5576 8.28846C16.6627 8.18846 16.7374 8.08013 16.7815 7.96346C16.825 7.84679 16.8467 7.72179 16.8467 7.58846C16.8467 7.45513 16.825 7.33013 16.7815 7.21346C16.7374 7.09679 16.6627 6.98846 16.5576 6.88846L9.6203 0.288461C9.42759 0.105128 9.18689 0.00912821 8.89818 0.00046154C8.60878 -0.00753846 8.35896 0.0884612 8.14874 0.288461C7.93852 0.471795 7.82885 0.700795 7.81974 0.975461C7.81133 1.25079 7.91224 1.48846 8.12246 1.68846L13.2729 6.58846H1.52674C1.22893 6.58846 0.979117 6.68413 0.777304 6.87546C0.576191 7.06746 0.475636 7.30513 0.475636 7.58846C0.475636 7.87179 0.576191 8.10913 0.777304 8.30046C0.979117 8.49246 1.22893 8.58846 1.52674 8.58846H13.2729L8.12246 13.4885C7.92976 13.6718 7.82885 13.9051 7.81974 14.1885C7.81133 14.4718 7.91224 14.7051 8.12246 14.8885C8.31517 15.0885 8.56043 15.1885 8.85824 15.1885C9.15605 15.1885 9.41007 15.0885 9.6203 14.8885Z" fill="#2F353E"/>
</svg>
