<svg width="10" height="14" viewBox="0 0 10 14" fill="none" xmlns="http://www.w3.org/2000/svg">
<path d="M4.59016 0C3.37322 0.00161146 2.20653 0.544951 1.34602 1.51083C0.485506 2.47671 0.00144055 3.78626 4.88346e-06 5.15222C-0.00145266 6.26849 0.323394 7.35446 0.924713 8.24356C0.924713 8.24356 1.0499 8.42857 1.07035 8.45527L4.59016 13.1148L8.11165 8.45293C8.13001 8.4281 8.25561 8.24356 8.25561 8.24356L8.25603 8.24215C8.85705 7.35345 9.18175 6.26798 9.18032 5.15222C9.17889 3.78626 8.69482 2.47671 7.83431 1.51083C6.9738 0.544951 5.80711 0.00161146 4.59016 0ZM4.59016 7.02576C4.26004 7.02576 3.93732 6.91588 3.66283 6.71001C3.38834 6.50415 3.17441 6.21154 3.04807 5.8692C2.92174 5.52685 2.88868 5.15015 2.95309 4.78672C3.01749 4.42329 3.17646 4.08945 3.4099 3.82743C3.64333 3.56542 3.94075 3.38698 4.26453 3.31469C4.58831 3.2424 4.92392 3.2795 5.22892 3.4213C5.53392 3.56311 5.7946 3.80324 5.97801 4.11134C6.16142 4.41945 6.25931 4.78167 6.25931 5.15222C6.25876 5.64893 6.08273 6.12511 5.76982 6.47633C5.45691 6.82755 5.03268 7.02514 4.59016 7.02576Z" fill="#E49A01"/>
</svg>
