<svg width="11" height="9" viewBox="0 0 11 9" fill="none" xmlns="http://www.w3.org/2000/svg">
<path d="M9.96866 0.375C10.538 0.375 10.9999 0.836699 10.9999 1.40625C10.9999 1.73066 10.8474 2.03574 10.5874 2.23125L5.91241 5.7375C5.79327 5.82642 5.64858 5.87446 5.49991 5.87446C5.35124 5.87446 5.20655 5.82642 5.08741 5.7375L0.412408 2.23125C0.152727 2.03574 -9.15527e-05 1.73066 -9.15527e-05 1.40625C-9.15527e-05 0.836699 0.461608 0.375 1.03116 0.375H9.96866ZM4.67491 6.2875C4.91278 6.46634 5.20231 6.56304 5.49991 6.56304C5.7975 6.56304 6.08704 6.46634 6.32491 6.2875L10.9999 2.78125V7.25C10.9999 8.0084 10.3833 8.625 9.62491 8.625H1.37491C0.615436 8.625 -9.15527e-05 8.0084 -9.15527e-05 7.25V2.78125L4.67491 6.2875Z" fill="#E49A01"/>
</svg>
