<svg width="12" height="12" viewBox="0 0 12 12" fill="none" xmlns="http://www.w3.org/2000/svg">
<path d="M10.9509 8.99864L8.57966 6.84264C8.46758 6.74076 8.32028 6.68642 8.16888 6.6911C8.01749 6.69578 7.87383 6.75911 7.76825 6.86772L6.37233 8.3033C6.03633 8.23914 5.36083 8.02855 4.6655 7.33497C3.97016 6.63905 3.75958 5.9618 3.69716 5.62814L5.13158 4.23164C5.24032 4.12613 5.30374 3.98245 5.30843 3.83101C5.31311 3.67956 5.25868 3.53224 5.15666 3.42022L3.00125 1.04955C2.89919 0.937177 2.75734 0.869013 2.60584 0.859537C2.45433 0.850061 2.3051 0.900019 2.18983 0.998802L0.923998 2.08439C0.823146 2.1856 0.762951 2.32032 0.754831 2.46297C0.746081 2.6088 0.579248 6.0633 3.25791 8.74314C5.59475 11.0794 8.52191 11.2503 9.32808 11.2503C9.44591 11.2503 9.51825 11.2468 9.5375 11.2456C9.68013 11.2377 9.81477 11.1772 9.9155 11.0759L11.0005 9.80947C11.0997 9.69457 11.15 9.54546 11.1407 9.39396C11.1315 9.24247 11.0633 9.10059 10.9509 8.99864Z" fill="#E49A01"/>
</svg>
