<svg width="32" height="35" viewBox="0 0 32 35" fill="none" xmlns="http://www.w3.org/2000/svg">
<path d="M29.9047 11.4202L20.9741 10.5445L17.4867 1.2666C16.8593 -0.422199 14.7189 -0.422199 14.0916 1.2666L10.6042 10.5654L1.69195 11.4202C0.0681932 11.5662 -0.596072 13.8596 0.640199 15.0688L7.41201 21.6989L5.38231 31.5398C5.01328 33.3328 6.72929 34.7506 8.13163 33.7915L15.7891 28.5792L23.4466 33.8124C24.849 34.7715 26.565 33.3537 26.1959 31.5607L24.1662 21.6989L30.938 15.0688C32.1743 13.8596 31.5285 11.5662 29.9047 11.4202ZM15.7891 24.6804L8.85125 29.4132L10.6964 20.4897L4.57043 14.4851L12.6523 13.6928L15.7891 5.29051L18.9444 13.7136L27.0263 14.5059L20.9003 20.5105L22.7455 29.434L15.7891 24.6804Z" fill="#FFB23E"/>
</svg>
