<svg width="70" height="71" viewBox="0 0 70 71" fill="none" xmlns="http://www.w3.org/2000/svg">
<path d="M35 35.5L47.9375 22.1875" stroke="#E49A01" stroke-width="5" stroke-miterlimit="10" stroke-linecap="round" stroke-linejoin="round"/>
<path d="M65.1875 13.3125H56.5625V4.4375L47.9375 13.3125V22.1875H56.5625L65.1875 13.3125Z" stroke="#E49A01" stroke-width="5" stroke-miterlimit="10" stroke-linecap="round" stroke-linejoin="round"/>
<path d="M35 48.8125C42.1452 48.8125 47.9375 42.8523 47.9375 35.5C47.9375 28.1477 42.1452 22.1875 35 22.1875C27.8548 22.1875 22.0625 28.1477 22.0625 35.5C22.0625 42.8523 27.8548 48.8125 35 48.8125Z" stroke="#E49A01" stroke-width="5" stroke-miterlimit="10" stroke-linecap="round" stroke-linejoin="round"/>
<path d="M58.7188 19.9688C61.5219 24.4062 63.0312 29.7313 63.0312 35.5C63.0312 51.475 50.525 64.3438 35 64.3438C19.475 64.3438 6.96875 51.475 6.96875 35.5C6.96875 19.525 19.475 6.65625 35 6.65625C40.6062 6.65625 45.7812 8.20938 50.0938 11.0938" stroke="#E49A01" stroke-width="5" stroke-miterlimit="10" stroke-linecap="round" stroke-linejoin="round"/>
</svg>
