<svg width="60" height="60" viewBox="0 0 60 60" fill="none" xmlns="http://www.w3.org/2000/svg">
<g clip-path="url(#clip0_815_1226)">
<path d="M2.5 17.5V2.5H17.5" stroke="#E49A01" stroke-width="5" stroke-miterlimit="10"/>
<path d="M42.5 2.5H57.5V17.5" stroke="#E49A01" stroke-width="5" stroke-miterlimit="10"/>
<path d="M2.5 42.5V57.5H17.5" stroke="#E49A01" stroke-width="5" stroke-miterlimit="10"/>
<path d="M42.5 57.5H57.5V42.5" stroke="#E49A01" stroke-width="5" stroke-miterlimit="10"/>
<path d="M55 29.9999C52.4699 34.3928 48.827 38.0414 44.4381 40.5784C40.0493 43.1154 35.0694 44.4512 30 44.4512C24.9306 44.4512 19.9507 43.1154 15.5619 40.5784C11.173 38.0414 7.53007 34.3928 5 29.9999C7.53007 25.607 11.173 21.9583 15.5619 19.4213C19.9507 16.8843 24.9306 15.5486 30 15.5486C35.0694 15.5486 40.0493 16.8843 44.4381 19.4213C48.827 21.9583 52.4699 25.607 55 29.9999Z" stroke="#E49A01" stroke-width="5" stroke-miterlimit="10"/>
<path d="M55 29.9999C52.4699 34.3928 48.827 38.0414 44.4381 40.5784C40.0493 43.1154 35.0694 44.4512 30 44.4512C24.9306 44.4512 19.9507 43.1154 15.5619 40.5784C11.173 38.0414 7.53007 34.3928 5 29.9999C7.53007 25.607 11.173 21.9583 15.5619 19.4213C19.9507 16.8843 24.9306 15.5486 30 15.5486C35.0694 15.5486 40.0493 16.8843 44.4381 19.4213C48.827 21.9583 52.4699 25.607 55 29.9999Z" stroke="#E49A01" stroke-width="5" stroke-miterlimit="10"/>
<path d="M30 37.5C34.1421 37.5 37.5 34.1421 37.5 30C37.5 25.8579 34.1421 22.5 30 22.5C25.8579 22.5 22.5 25.8579 22.5 30C22.5 34.1421 25.8579 37.5 30 37.5Z" stroke="#E49A01" stroke-width="5" stroke-miterlimit="10"/>
</g>
<defs>
<clipPath id="clip0_815_1226">
<rect width="60" height="60" fill="white"/>
</clipPath>
</defs>
</svg>
