<svg width="50" height="51" viewBox="0 0 50 51" fill="none" xmlns="http://www.w3.org/2000/svg">
<path d="M25 25.5L34.375 15.9375" stroke="#E49A01" stroke-width="2" stroke-miterlimit="10" stroke-linecap="round" stroke-linejoin="round"/>
<path d="M46.875 9.5625H40.625V3.1875L34.375 9.5625V15.9375H40.625L46.875 9.5625Z" stroke="#E49A01" stroke-width="2" stroke-miterlimit="10" stroke-linecap="round" stroke-linejoin="round"/>
<path d="M25 35.0625C30.1777 35.0625 34.375 30.7812 34.375 25.5C34.375 20.2188 30.1777 15.9375 25 15.9375C19.8223 15.9375 15.625 20.2188 15.625 25.5C15.625 30.7812 19.8223 35.0625 25 35.0625Z" stroke="#E49A01" stroke-width="2" stroke-miterlimit="10" stroke-linecap="round" stroke-linejoin="round"/>
<path d="M42.1875 14.3438C44.2187 17.5312 45.3125 21.3563 45.3125 25.5C45.3125 36.975 36.25 46.2188 25 46.2188C13.75 46.2188 4.6875 36.975 4.6875 25.5C4.6875 14.025 13.75 4.78125 25 4.78125C29.0625 4.78125 32.8125 5.89688 35.9375 7.96875" stroke="#E49A01" stroke-width="2" stroke-miterlimit="10" stroke-linecap="round" stroke-linejoin="round"/>
</svg>
