<svg width="1447" height="300" viewBox="0 0 1447 300" fill="none" xmlns="http://www.w3.org/2000/svg">
<g clip-path="url(#clip0_194_210)">
<rect width="1447" height="300" fill="white"/>
<ellipse cx="3.41467" cy="3.40417" rx="3.41467" ry="3.40417" transform="matrix(0.745404 -0.666613 0.702843 0.711345 40.0371 140.571)" fill="#FFC21A" fill-opacity="0.2"/>
<ellipse cx="3.41467" cy="3.40417" rx="3.41467" ry="3.40417" transform="matrix(0.745404 -0.666613 0.702843 0.711345 56.3066 157.038)" fill="#FFC21A" fill-opacity="0.2"/>
<ellipse cx="3.41467" cy="3.40417" rx="3.41467" ry="3.40417" transform="matrix(0.745404 -0.666613 0.702843 0.711345 72.5762 173.504)" fill="#FFC21A" fill-opacity="0.2"/>
<ellipse cx="3.41467" cy="3.40417" rx="3.41467" ry="3.40417" transform="matrix(0.745404 -0.666613 0.702843 0.711345 88.8457 189.971)" fill="#FFC21A" fill-opacity="0.2"/>
<ellipse cx="3.41467" cy="3.40417" rx="3.41467" ry="3.40417" transform="matrix(0.745404 -0.666613 0.702843 0.711345 105.115 206.437)" fill="#FFC21A" fill-opacity="0.2"/>
<ellipse cx="3.41467" cy="3.40417" rx="3.41467" ry="3.40417" transform="matrix(0.745404 -0.666613 0.702843 0.711345 41.0762 108.626)" fill="#FFC21A" fill-opacity="0.2"/>
<ellipse cx="3.41467" cy="3.40417" rx="3.41467" ry="3.40417" transform="matrix(0.745404 -0.666613 0.702843 0.711345 57.3457 125.093)" fill="#FFC21A" fill-opacity="0.2"/>
<ellipse cx="3.41467" cy="3.40417" rx="3.41467" ry="3.40417" transform="matrix(0.745404 -0.666613 0.702843 0.711345 73.6152 141.559)" fill="#FFC21A" fill-opacity="0.2"/>
<ellipse cx="3.41467" cy="3.40417" rx="3.41467" ry="3.40417" transform="matrix(0.745404 -0.666613 0.702843 0.711345 89.8848 158.026)" fill="#FFC21A" fill-opacity="0.2"/>
<ellipse cx="3.41467" cy="3.40417" rx="3.41467" ry="3.40417" transform="matrix(0.745404 -0.666613 0.702843 0.711345 106.154 174.492)" fill="#FFC21A" fill-opacity="0.2"/>
<ellipse cx="3.41467" cy="3.40417" rx="3.41467" ry="3.40417" transform="matrix(0.745404 -0.666613 0.702843 0.711345 122.424 190.959)" fill="#FFC21A" fill-opacity="0.2"/>
<ellipse cx="3.41467" cy="3.40417" rx="3.41467" ry="3.40417" transform="matrix(0.745404 -0.666613 0.702843 0.711345 58.3828 93.1477)" fill="#FFC21A" fill-opacity="0.2"/>
<ellipse cx="3.41467" cy="3.40417" rx="3.41467" ry="3.40417" transform="matrix(0.745404 -0.666613 0.702843 0.711345 74.6523 109.614)" fill="#FFC21A" fill-opacity="0.2"/>
<ellipse cx="3.41467" cy="3.40417" rx="3.41467" ry="3.40417" transform="matrix(0.745404 -0.666613 0.702843 0.711345 90.9238 126.081)" fill="#FFC21A" fill-opacity="0.2"/>
<ellipse cx="3.41467" cy="3.40417" rx="3.41467" ry="3.40417" transform="matrix(0.745404 -0.666613 0.702843 0.711345 107.193 142.547)" fill="#FFC21A" fill-opacity="0.2"/>
<ellipse cx="3.41467" cy="3.40417" rx="3.41467" ry="3.40417" transform="matrix(0.745404 -0.666613 0.702843 0.711345 123.461 159.014)" fill="#FFC21A" fill-opacity="0.2"/>
<ellipse cx="3.41467" cy="3.40417" rx="3.41467" ry="3.40417" transform="matrix(0.745404 -0.666613 0.702843 0.711345 139.732 175.48)" fill="#FFC21A" fill-opacity="0.2"/>
<ellipse cx="3.41467" cy="3.40417" rx="3.41467" ry="3.40417" transform="matrix(0.745404 -0.666613 0.702843 0.711345 75.6914 77.6691)" fill="#FFC21A" fill-opacity="0.2"/>
<ellipse cx="3.41467" cy="3.40417" rx="3.41467" ry="3.40417" transform="matrix(0.745404 -0.666613 0.702843 0.711345 91.9609 94.1356)" fill="#FFC21A" fill-opacity="0.2"/>
<ellipse cx="3.41467" cy="3.40417" rx="3.41467" ry="3.40417" transform="matrix(0.745404 -0.666613 0.702843 0.711345 108.23 110.602)" fill="#FFC21A" fill-opacity="0.2"/>
<ellipse cx="3.41467" cy="3.40417" rx="3.41467" ry="3.40417" transform="matrix(0.745404 -0.666613 0.702843 0.711345 124.5 127.069)" fill="#FFC21A" fill-opacity="0.2"/>
<ellipse cx="3.41467" cy="3.40417" rx="3.41467" ry="3.40417" transform="matrix(0.745404 -0.666613 0.702843 0.711345 140.771 143.535)" fill="#FFC21A" fill-opacity="0.2"/>
<ellipse cx="3.41467" cy="3.40417" rx="3.41467" ry="3.40417" transform="matrix(0.745404 -0.666613 0.702843 0.711345 157.041 160.001)" fill="#FFC21A" fill-opacity="0.2"/>
<ellipse cx="3.41467" cy="3.40417" rx="3.41467" ry="3.40417" transform="matrix(0.745404 -0.666613 0.702843 0.711345 93 62.1906)" fill="#FFC21A" fill-opacity="0.2"/>
<ellipse cx="3.41467" cy="3.40417" rx="3.41467" ry="3.40417" transform="matrix(0.745404 -0.666613 0.702843 0.711345 109.27 78.657)" fill="#FFC21A" fill-opacity="0.2"/>
<ellipse cx="3.41467" cy="3.40417" rx="3.41467" ry="3.40417" transform="matrix(0.745404 -0.666613 0.702843 0.711345 125.539 95.1235)" fill="#FFC21A" fill-opacity="0.2"/>
<ellipse cx="3.41467" cy="3.40417" rx="3.41467" ry="3.40417" transform="matrix(0.745404 -0.666613 0.702843 0.711345 141.809 111.59)" fill="#FFC21A" fill-opacity="0.2"/>
<ellipse cx="3.41467" cy="3.40417" rx="3.41467" ry="3.40417" transform="matrix(0.745404 -0.666613 0.702843 0.711345 158.078 128.056)" fill="#FFC21A" fill-opacity="0.2"/>
<ellipse cx="3.41467" cy="3.40417" rx="3.41467" ry="3.40417" transform="matrix(0.745404 -0.666613 0.702843 0.711345 174.348 144.523)" fill="#FFC21A" fill-opacity="0.2"/>
<ellipse cx="3.41467" cy="3.40417" rx="3.41467" ry="3.40417" transform="matrix(0.745404 -0.666613 0.702843 0.711345 110.309 46.7119)" fill="#FFC21A" fill-opacity="0.2"/>
<ellipse cx="3.41467" cy="3.40417" rx="3.41467" ry="3.40417" transform="matrix(0.745404 -0.666613 0.702843 0.711345 126.578 63.1785)" fill="#FFC21A" fill-opacity="0.2"/>
<ellipse cx="3.41467" cy="3.40417" rx="3.41467" ry="3.40417" transform="matrix(0.745404 -0.666613 0.702843 0.711345 142.848 79.6449)" fill="#FFC21A" fill-opacity="0.2"/>
<ellipse cx="3.41467" cy="3.40417" rx="3.41467" ry="3.40417" transform="matrix(0.745404 -0.666613 0.702843 0.711345 159.117 96.1115)" fill="#FFC21A" fill-opacity="0.2"/>
<ellipse cx="3.41467" cy="3.40417" rx="3.41467" ry="3.40417" transform="matrix(0.745404 -0.666613 0.702843 0.711345 175.387 112.578)" fill="#FFC21A" fill-opacity="0.2"/>
<ellipse cx="3.41467" cy="3.40417" rx="3.41467" ry="3.40417" transform="matrix(0.745404 -0.666613 0.702843 0.711345 181.875 129.044)" fill="#FFC21A" fill-opacity="0.2"/>
<ellipse cx="3.41467" cy="3.40417" rx="3.41467" ry="3.40417" transform="matrix(0.745404 -0.666613 0.702843 0.711345 127.615 31.2334)" fill="#FFC21A" fill-opacity="0.2"/>
<ellipse cx="3.41467" cy="3.40417" rx="3.41467" ry="3.40417" transform="matrix(0.745404 -0.666613 0.702843 0.711345 162.232 0.276245)" fill="#FFC21A" fill-opacity="0.2"/>
<ellipse cx="3.41467" cy="3.40417" rx="3.41467" ry="3.40417" transform="matrix(0.745404 -0.666613 0.702843 0.711345 143.885 47.6998)" fill="#FFC21A" fill-opacity="0.2"/>
<ellipse cx="3.41467" cy="3.40417" rx="3.41467" ry="3.40417" transform="matrix(0.745404 -0.666613 0.702843 0.711345 178.502 16.7427)" fill="#FFC21A" fill-opacity="0.2"/>
<ellipse cx="3.41467" cy="3.40417" rx="3.41467" ry="3.40417" transform="matrix(0.745404 -0.666613 0.702843 0.711345 160.156 64.1664)" fill="#FFC21A" fill-opacity="0.2"/>
<ellipse cx="3.41467" cy="3.40417" rx="3.41467" ry="3.40417" transform="matrix(0.745404 -0.666613 0.702843 0.711345 194.771 33.2092)" fill="#FFC21A" fill-opacity="0.2"/>
<ellipse cx="3.41467" cy="3.40417" rx="3.41467" ry="3.40417" transform="matrix(0.745404 -0.666613 0.702843 0.711345 233.58 2.25208)" fill="#FFC21A" fill-opacity="0.2"/>
<ellipse cx="3.41467" cy="3.40417" rx="3.41467" ry="3.40417" transform="matrix(0.745404 -0.666613 0.702843 0.711345 176.426 80.6328)" fill="#FFC21A" fill-opacity="0.2"/>
<ellipse cx="3.41467" cy="3.40417" rx="3.41467" ry="3.40417" transform="matrix(0.745404 -0.666613 0.702843 0.711345 211.041 49.6757)" fill="#FFC21A" fill-opacity="0.2"/>
<ellipse cx="3.41467" cy="3.40417" rx="3.41467" ry="3.40417" transform="matrix(0.745404 -0.666613 0.702843 0.711345 249.85 18.7185)" fill="#FFC21A" fill-opacity="0.2"/>
<ellipse cx="3.41467" cy="3.40417" rx="3.41467" ry="3.40417" transform="matrix(0.745404 -0.666613 0.702843 0.711345 192.695 97.0994)" fill="#FFC21A" fill-opacity="0.2"/>
<ellipse cx="3.41467" cy="3.40417" rx="3.41467" ry="3.40417" transform="matrix(0.745404 -0.666613 0.702843 0.711345 231.504 66.1422)" fill="#FFC21A" fill-opacity="0.2"/>
<ellipse cx="3.41467" cy="3.40417" rx="3.41467" ry="3.40417" transform="matrix(0.745404 -0.666613 0.702843 0.711345 266.119 35.1851)" fill="#FFC21A" fill-opacity="0.2"/>
<ellipse cx="3.41467" cy="3.40417" rx="3.41467" ry="3.40417" transform="matrix(0.745404 -0.666613 0.702843 0.711345 304.928 4.22791)" fill="#FFC21A" fill-opacity="0.2"/>
<ellipse cx="3.41467" cy="3.40417" rx="3.41467" ry="3.40417" transform="matrix(0.745404 -0.666613 0.702843 0.711345 199.184 113.566)" fill="#FFC21A" fill-opacity="0.2"/>
<ellipse cx="3.41467" cy="3.40417" rx="3.41467" ry="3.40417" transform="matrix(0.745404 -0.666613 0.702843 0.711345 247.773 82.6086)" fill="#FFC21A" fill-opacity="0.2"/>
<ellipse cx="3.41467" cy="3.40417" rx="3.41467" ry="3.40417" transform="matrix(0.745404 -0.666613 0.702843 0.711345 282.389 51.6516)" fill="#FFC21A" fill-opacity="0.2"/>
<ellipse cx="3.41467" cy="3.40417" rx="3.41467" ry="3.40417" transform="matrix(0.745404 -0.666613 0.702843 0.711345 321.197 20.6945)" fill="#FFC21A" fill-opacity="0.2"/>
<ellipse cx="3.41467" cy="3.40417" rx="3.41467" ry="3.40417" transform="matrix(0.745404 -0.666613 0.702843 0.711345 144.924 15.7549)" fill="#FFC21A" fill-opacity="0.2"/>
<ellipse cx="3.41467" cy="3.40417" rx="3.41467" ry="3.40417" transform="matrix(0.745404 -0.666613 0.702843 0.711345 161.193 32.2213)" fill="#FFC21A" fill-opacity="0.2"/>
<ellipse cx="3.41467" cy="3.40417" rx="3.41467" ry="3.40417" transform="matrix(0.745404 -0.666613 0.702843 0.711345 195.811 1.26416)" fill="#FFC21A" fill-opacity="0.2"/>
<ellipse cx="3.41467" cy="3.40417" rx="3.41467" ry="3.40417" transform="matrix(0.745404 -0.666613 0.702843 0.711345 177.463 48.6877)" fill="#FFC21A" fill-opacity="0.2"/>
<ellipse cx="3.41467" cy="3.40417" rx="3.41467" ry="3.40417" transform="matrix(0.745404 -0.666613 0.702843 0.711345 212.08 17.7306)" fill="#FFC21A" fill-opacity="0.2"/>
<ellipse cx="3.41467" cy="3.40417" rx="3.41467" ry="3.40417" transform="matrix(0.745404 -0.666613 0.702843 0.711345 193.732 65.1543)" fill="#FFC21A" fill-opacity="0.2"/>
<ellipse cx="3.41467" cy="3.40417" rx="3.41467" ry="3.40417" transform="matrix(0.745404 -0.666613 0.702843 0.711345 232.541 34.1971)" fill="#FFC21A" fill-opacity="0.2"/>
<ellipse cx="3.41467" cy="3.40417" rx="3.41467" ry="3.40417" transform="matrix(0.745404 -0.666613 0.702843 0.711345 267.158 3.23999)" fill="#FFC21A" fill-opacity="0.2"/>
<ellipse cx="3.41467" cy="3.40417" rx="3.41467" ry="3.40417" transform="matrix(0.745404 -0.666613 0.702843 0.711345 210.002 81.6207)" fill="#FFC21A" fill-opacity="0.2"/>
<ellipse cx="3.41467" cy="3.40417" rx="3.41467" ry="3.40417" transform="matrix(0.745404 -0.666613 0.702843 0.711345 248.811 50.6636)" fill="#FFC21A" fill-opacity="0.2"/>
<ellipse cx="3.41467" cy="3.40417" rx="3.41467" ry="3.40417" transform="matrix(0.745404 -0.666613 0.702843 0.711345 283.426 19.7065)" fill="#FFC21A" fill-opacity="0.2"/>
<ellipse cx="3.41467" cy="3.40417" rx="3.41467" ry="3.40417" transform="matrix(0.745404 -0.666613 0.702843 0.711345 230.465 98.0872)" fill="#FFC21A" fill-opacity="0.2"/>
<ellipse cx="3.41467" cy="3.40417" rx="3.41467" ry="3.40417" transform="matrix(0.745404 -0.666613 0.702843 0.711345 265.08 67.1301)" fill="#FFC21A" fill-opacity="0.2"/>
<ellipse cx="3.41467" cy="3.40417" rx="3.41467" ry="3.40417" transform="matrix(0.745404 -0.666613 0.702843 0.711345 303.889 36.173)" fill="#FFC21A" fill-opacity="0.2"/>
<ellipse cx="3.41467" cy="3.40417" rx="3.41467" ry="3.40417" transform="matrix(0.745404 -0.666613 0.702843 0.711345 338.506 5.21582)" fill="#FFC21A" fill-opacity="0.2"/>
<rect width="255.323" height="247.802" rx="60" transform="matrix(0.930716 0.365742 -0.398249 0.917277 86.6875 -211)" fill="#E49A01" fill-opacity="0.2"/>
</g>
<defs>
<clipPath id="clip0_194_210">
<rect width="1447" height="300" fill="white"/>
</clipPath>
</defs>
</svg>
