<svg width="15" height="15" viewBox="0 0 15 15" fill="none" xmlns="http://www.w3.org/2000/svg">
<path fill-rule="evenodd" clip-rule="evenodd" d="M14 9.0001C13.448 9.0001 13 9.4481 13 10.0001V12.0001H2V10.0001C2 9.4481 1.552 9.0001 1 9.0001C0.448 9.0001 0 9.4481 0 10.0001V13.5001C0 13.7396 0.2605 14.0001 0.5 14.0001H14.5C14.802 14.0001 15 13.7711 15 13.5001V10.0001C15 9.4481 14.552 9.0001 14 9.0001ZM5.5 5.0001H6.5V9.5001C6.5 10.0521 6.948 10.5001 7.5 10.5001C8.052 10.5001 8.5 10.0521 8.5 9.5001V5.0001H9.5C9.852 5.0001 10.163 5.04761 10.3595 4.8501C10.555 4.6536 10.555 4.33409 10.3595 4.13709L7.888 1.14161C7.783 1.03661 7.6445 0.991592 7.508 0.999092C7.371 0.991592 7.23249 1.03661 7.12799 1.14161L4.65649 4.13709C4.46049 4.33409 4.46049 4.6536 4.65649 4.8501C4.85249 5.04761 5.304 5.0001 5.5 5.0001Z" fill="#E49A01"/>
</svg>
