<svg width="51" height="52" viewBox="0 0 51 52" fill="none" xmlns="http://www.w3.org/2000/svg">
<path d="M0 25.5C0 11.4167 11.4167 0 25.5 0C39.5833 0 51 11.4167 51 25.5V26.5C51 40.5833 39.5833 52 25.5 52C11.4167 52 0 40.5833 0 26.5V25.5Z" fill="url(#paint0_linear_843_704)"/>
<path fill-rule="evenodd" clip-rule="evenodd" d="M30.8012 37.0843C28.6128 36.536 24.1327 34.9902 20.0711 30.9287C16.0096 26.8671 14.4638 22.387 13.9155 20.1986C13.6004 18.9409 14.1678 17.7273 15.1299 17.0401L17.6522 15.2385C19.128 14.1843 21.181 14.542 22.2134 16.0332L23.8013 18.3269C24.4753 19.3005 24.2428 20.6349 23.2792 21.3232L22.0131 22.2276C22.2047 22.9606 22.8007 24.4659 24.6673 26.3325C26.5339 28.1991 28.0392 28.795 28.7722 28.9867L29.6765 27.7205C30.3649 26.757 31.6993 26.5244 32.6729 27.1984L34.9667 28.7864C36.4578 29.8188 36.8155 31.8717 35.7613 33.3475L33.9597 35.8699C33.2724 36.832 32.0589 37.3994 30.8012 37.0843ZM21.6032 29.3966C25.2967 33.0901 29.3726 34.4927 31.3277 34.9826C31.6135 35.0541 31.959 34.9431 32.1966 34.6105L33.9983 32.0882C34.3496 31.5963 34.2304 30.912 33.7333 30.5678L31.4396 28.9799L30.4691 30.3387C30.0725 30.894 29.339 31.3295 28.4849 31.1452C27.4189 30.9152 25.4483 30.1776 23.1352 27.8646C20.8222 25.5515 20.0846 23.581 19.8546 22.515C19.6703 21.6609 20.1058 20.9273 20.6611 20.5307L22.0199 19.5601L20.432 17.2665C20.0878 16.7694 19.4035 16.6502 18.9116 17.0015L16.3893 18.8032C16.0567 19.0408 15.9456 19.3862 16.0172 19.672C16.5071 21.6271 17.9097 25.7031 21.6032 29.3966Z" fill="white"/>
<defs>
<linearGradient id="paint0_linear_843_704" x1="6.17899" y1="11.5555" x2="53.6683" y2="29.1408" gradientUnits="userSpaceOnUse">
<stop stop-color="#E49A01"/>
<stop offset="1" stop-color="#FFC21A"/>
</linearGradient>
</defs>
</svg>
