<svg width="19" height="19" viewBox="0 0 19 19" fill="none" xmlns="http://www.w3.org/2000/svg">
<g clip-path="url(#clip0_843_878)">
<path d="M2.22709 12.2451L1.22431 16.5729C1.18972 16.7311 1.19091 16.8951 1.22778 17.0527C1.26466 17.2104 1.3363 17.3579 1.43746 17.4843C1.53863 17.6108 1.66676 17.7131 1.81251 17.7836C1.95825 17.8542 2.11793 17.8914 2.27987 17.8924C2.35532 17.9 2.43136 17.9 2.50681 17.8924L6.86098 16.8896L15.221 8.56125L10.5554 3.90625L2.22709 12.2451Z" fill="#E49A01"/>
<path d="M17.8495 4.39115L14.7356 1.27726C14.5309 1.07357 14.2538 0.959229 13.965 0.959229C13.6763 0.959229 13.3992 1.07357 13.1945 1.27726L11.4634 3.00837L16.1237 7.66865L17.8548 5.93754C17.9561 5.83572 18.0363 5.71492 18.0909 5.58206C18.1455 5.4492 18.1733 5.30688 18.1728 5.16325C18.1723 5.01962 18.1435 4.87749 18.088 4.74501C18.0325 4.61252 17.9515 4.49227 17.8495 4.39115Z" fill="#E49A01"/>
</g>
<defs>
<clipPath id="clip0_843_878">
<rect width="19" height="19" fill="white"/>
</clipPath>
</defs>
</svg>
