<svg width="14" height="14" viewBox="0 0 14 14" fill="none" xmlns="http://www.w3.org/2000/svg">
<circle cx="7" cy="7" r="6.5" fill="#D39102" stroke="#D29003"/>
<path d="M7 6.33333C7.17681 6.33333 7.34638 6.39479 7.4714 6.50419C7.59643 6.61358 7.66667 6.76196 7.66667 6.91667V10.4167C7.66667 10.5714 7.59643 10.7197 7.4714 10.8291C7.34638 10.9385 7.17681 11 7 11C6.82319 11 6.65362 10.9385 6.5286 10.8291C6.40357 10.7197 6.33333 10.5714 6.33333 10.4167V6.91667C6.33333 6.76196 6.40357 6.61358 6.5286 6.50419C6.65362 6.39479 6.82319 6.33333 7 6.33333ZM8 4.875C8 5.10706 7.89464 5.32962 7.70711 5.49372C7.51957 5.65781 7.26522 5.75 7 5.75C6.73478 5.75 6.48043 5.65781 6.29289 5.49372C6.10536 5.32962 6 5.10706 6 4.875C6 4.64294 6.10536 4.42038 6.29289 4.25628C6.48043 4.09219 6.73478 4 7 4C7.26522 4 7.51957 4.09219 7.70711 4.25628C7.89464 4.42038 8 4.64294 8 4.875Z" fill="white"/>
</svg>
