<svg width="91" height="91" viewBox="0 0 91 91" fill="none" xmlns="http://www.w3.org/2000/svg">
<path d="M17.0625 79.625C17.0625 79.625 11.375 79.625 11.375 73.9375C11.375 68.25 17.0625 51.1875 45.5 51.1875C73.9375 51.1875 79.625 68.25 79.625 73.9375C79.625 79.625 73.9375 79.625 73.9375 79.625H17.0625ZM45.5 45.5C50.0253 45.5 54.3652 43.7023 57.565 40.5025C60.7649 37.3027 62.5625 32.9628 62.5625 28.4375C62.5625 23.9122 60.7649 19.5723 57.565 16.3725C54.3652 13.1727 50.0253 11.375 45.5 11.375C40.9747 11.375 36.6348 13.1727 33.435 16.3725C30.2352 19.5723 28.4375 23.9122 28.4375 28.4375C28.4375 32.9628 30.2352 37.3027 33.435 40.5025C36.6348 43.7023 40.9747 45.5 45.5 45.5Z" fill="#E49A01"/>
</svg>
