<svg width="113" height="108" viewBox="0 0 113 108" fill="none" xmlns="http://www.w3.org/2000/svg">
<path d="M52.4662 38.0447L52.4656 38.0446C50.6002 37.6197 48.9941 36.1318 48.0065 33.773C47.0212 31.4198 46.7235 28.3289 47.4414 25.0808C48.1594 21.8323 49.728 19.1714 51.6034 17.4766C53.4814 15.7795 55.5506 15.1334 57.4133 15.5584C59.2797 15.9842 60.8858 17.4725 61.8733 19.8309C62.8585 22.1838 63.156 25.2741 62.4381 28.5223C61.7201 31.7708 60.1516 34.4317 58.2761 36.1265C56.3981 37.8236 54.3289 38.4697 52.4662 38.0447ZM17.7461 63.9548C19.0281 61.5082 21.4579 59.0465 24.6866 56.8123C27.8966 54.591 31.7975 52.6633 35.8844 51.244C39.9724 49.8244 44.1976 48.9303 48.0485 48.7416C51.9208 48.5519 55.2867 49.0809 57.7588 50.3762C60.231 51.6716 62.5818 54.138 64.6297 57.4298C66.6665 60.7035 68.3363 64.6864 69.4958 68.8556C70.655 73.0238 71.2903 77.3283 71.291 81.2319C71.2917 85.1583 70.6507 88.5573 69.3687 91.0039C68.2735 93.0941 66.6752 94.2481 64.7328 94.6019C62.7286 94.9669 60.1614 94.512 57.1738 92.9466C53.9876 91.2771 51.7455 89.0516 49.516 86.7491C49.389 86.618 49.2618 86.4863 49.1342 86.3541C47.0646 84.2111 44.8927 81.9621 42.0021 80.4476C39.1457 78.9509 36.0867 78.4506 33.164 77.9727C32.9703 77.941 32.7772 77.9094 32.5849 77.8777C29.4274 77.3564 26.3077 76.7734 23.0899 75.0874C20.1023 73.522 18.2671 71.6701 17.4265 69.8145C16.6118 68.016 16.6509 66.045 17.7461 63.9548ZM31.7722 25.3299C35.3639 26.2357 38.015 30.7962 37.0123 35.9476C36.0131 41.0813 32.0076 43.8043 28.525 42.926C24.9333 42.0201 22.2822 37.4596 23.2849 32.3082C24.2841 27.1745 28.2896 24.4515 31.7722 25.3299ZM80.5217 70.1729C77.8173 67.8093 77.7763 62.9661 81.4286 59.2225C85.0952 55.4664 90.3523 55.0503 93.1412 57.4876C95.8456 59.8511 95.8865 64.6944 92.2343 68.438C88.5677 72.194 83.3105 72.6101 80.5217 70.1729ZM84.4296 44.4617C82.1675 46.9008 79.4572 48.4151 76.9619 48.9443C74.4608 49.4747 72.3229 49.0013 70.9105 47.7091C69.5008 46.4194 68.8543 44.3503 69.1808 41.8403C69.5068 39.3336 70.8018 36.5294 73.0641 34.0901C75.3262 31.651 78.0367 30.1363 80.5322 29.607C83.0334 29.0764 85.171 29.5499 86.5829 30.8424C87.9926 32.1329 88.639 34.2023 88.3127 36.7121C87.9867 39.2186 86.6919 42.0224 84.4296 44.4617Z" fill="white" stroke="#E49A01" stroke-width="3.15386"/>
<path d="M33.4577 63.8051L33.7375 63.9504L33.142 65.0975L30.4 63.6741L30.9955 62.527L31.4152 62.7448L31.5938 62.1271L30.6425 61.6333L30.2401 62.1348L30.6598 62.3527L30.0643 63.4998L27.6721 62.2579L28.2676 61.1108L28.5474 61.256L31.959 57.575L34.5051 58.8967L33.4577 63.8051ZM31.1813 60.9718L31.8248 61.3058L32.2606 59.765L32.1907 59.7287L31.1813 60.9718ZM34.6766 66.0185C34.2009 65.7716 33.9339 65.408 33.8754 64.9277C33.8215 64.4498 33.964 63.8845 34.303 63.2316C34.6419 62.5788 35.0222 62.1369 35.444 61.906C35.8705 61.6775 36.3215 61.6867 36.7972 61.9336C37.035 62.057 37.2146 62.2243 37.3359 62.4352C37.4619 62.6487 37.5445 62.8602 37.5836 63.07L38.0411 62.1886L37.6284 61.9744L38.224 60.8273L40.2454 61.8767L38.0159 66.1714L38.3236 66.3312L37.7281 67.4783L35.8116 66.4834L36.0585 66.0078C35.8645 66.0965 35.6439 66.1507 35.3969 66.1704C35.1545 66.1926 34.9144 66.1419 34.6766 66.0185ZM36.0014 65.1257C36.1366 65.1959 36.255 65.2129 36.3566 65.1769C36.4653 65.1386 36.5596 65.0425 36.6395 64.8886L37.0026 64.1891C37.0825 64.0352 37.1056 63.9052 37.072 63.7989C37.0454 63.6904 36.9645 63.6011 36.8293 63.5309C36.6941 63.4607 36.5721 63.4447 36.4634 63.483C36.3618 63.5191 36.2711 63.614 36.1912 63.7679L35.8281 64.4674C35.7482 64.6213 35.7216 64.7525 35.7481 64.861C35.7817 64.9672 35.8662 65.0554 36.0014 65.1257ZM39.987 68.7753C39.3248 68.4315 38.8968 67.9903 38.7029 67.4516C38.5114 66.9082 38.5887 66.303 38.9349 65.6362C39.281 64.9694 39.7302 64.5603 40.2824 64.4089C40.837 64.2528 41.4454 64.3466 42.1076 64.6904C42.7791 65.039 43.207 65.4861 43.3914 66.0317C43.5783 66.5727 43.501 67.1719 43.1597 67.8294C42.8135 68.4963 42.3631 68.9077 41.8085 69.0638C41.2563 69.2152 40.6491 69.119 39.987 68.7753ZM40.6333 67.5302C40.7686 67.6004 40.887 67.6175 40.9886 67.5814C41.0972 67.5431 41.1915 67.4471 41.2714 67.2932L41.6345 66.5937C41.7144 66.4398 41.7375 66.3097 41.7039 66.2035C41.6774 66.095 41.5965 66.0056 41.4612 65.9354C41.326 65.8652 41.204 65.8493 41.0954 65.8876C40.9938 65.9236 40.903 66.0186 40.8231 66.1725L40.46 66.872C40.3801 67.0258 40.3535 67.157 40.38 67.2655C40.4137 67.3718 40.4981 67.46 40.6333 67.5302ZM42.1343 70.2807L42.4421 70.4405L44.0761 67.2929L43.7683 67.1331L44.3639 65.986L46.2804 66.9809L46.0335 67.4566C46.2275 67.3679 46.4457 67.3124 46.6881 67.2903C46.9352 67.2705 47.1776 67.3224 47.4154 67.4458C47.8911 67.6928 48.1558 68.0551 48.2096 68.533C48.2681 69.0133 48.1279 69.5798 47.789 70.2327C47.4501 70.8855 47.0674 71.3262 46.641 71.5547C46.2192 71.7857 45.7705 71.7777 45.2948 71.5308C45.057 71.4073 44.8751 71.2389 44.7491 71.0254C44.6277 70.8145 44.5475 70.6041 44.5084 70.3944L44.0509 71.2757L44.5335 71.5262L43.938 72.6734L41.5388 71.4279L42.1343 70.2807ZM45.2627 69.9335C45.3979 70.0037 45.5163 70.0207 45.6179 69.9847C45.7266 69.9464 45.8209 69.8503 45.9008 69.6964L46.2639 68.9969C46.3438 68.8431 46.3669 68.713 46.3333 68.6067C46.3067 68.4982 46.2258 68.4089 46.0906 68.3387C45.9554 68.2685 45.8334 68.2525 45.7247 68.2908C45.6231 68.3269 45.5324 68.4218 45.4525 68.5757L45.0894 69.2752C45.0095 69.4291 44.9828 69.5603 45.0094 69.6688C45.043 69.775 45.1274 69.8633 45.2627 69.9335ZM48.6537 73.2745C48.1594 73.0179 47.8481 72.7053 47.7197 72.3367C47.5985 71.966 47.6855 71.4961 47.9808 70.9272L48.6381 69.6612L48.3303 69.5014L48.9258 68.3543C49.103 68.4462 49.2589 68.4709 49.3935 68.4283C49.5305 68.3811 49.6402 68.2782 49.7225 68.1196L49.8859 67.8048L51.3688 68.5747L50.9403 69.4L51.8846 69.8902L51.2891 71.0374L50.3448 70.5472L49.7493 71.6943C49.6694 71.8482 49.6427 71.9794 49.6693 72.0879C49.7029 72.1941 49.7873 72.2824 49.9226 72.3526C50.0998 72.4446 50.3042 72.524 50.5358 72.591L49.9657 73.6892C49.8085 73.6727 49.6071 73.6273 49.3615 73.5531C49.1181 73.486 48.8822 73.3931 48.6537 73.2745ZM52.1662 75.0979C51.5041 74.7542 51.076 74.3129 50.8821 73.7742C50.6906 73.2308 50.768 72.6257 51.1141 71.9589C51.4603 71.292 51.9095 70.8829 52.4617 70.7315C53.0163 70.5754 53.6247 70.6693 54.2869 71.013C54.9444 71.3543 55.3281 71.7726 55.4381 72.2678C55.5551 72.7607 55.4817 73.2613 55.2179 73.7696L54.9564 74.2732L52.6901 73.0967L52.6683 73.1386C52.5788 73.3112 52.5635 73.466 52.6225 73.6032C52.684 73.7358 52.8336 73.8638 53.0714 73.9872C53.3559 74.1349 53.6372 74.2543 53.9155 74.3455C54.1937 74.4367 54.4454 74.4992 54.6705 74.5332L54.0895 75.6524C53.8803 75.6562 53.5978 75.6132 53.2419 75.5232C52.8932 75.4309 52.5346 75.2892 52.1662 75.0979ZM53.901 72.7485L53.9445 72.6645C54.0268 72.506 54.0512 72.3736 54.0175 72.2673C53.9886 72.1635 53.9065 72.0765 53.7712 72.0063C53.636 71.9361 53.514 71.9201 53.4054 71.9584C53.3038 71.9945 53.213 72.0894 53.1331 72.2433L53.0896 72.3273L53.901 72.7485ZM55.6129 76.8872C55.1373 76.6403 54.8702 76.2767 54.8117 75.7964C54.7578 75.3185 54.9004 74.7532 55.2393 74.1003C55.5782 73.4475 55.9585 73.0056 56.3803 72.7747C56.8068 72.5462 57.2579 72.5554 57.7335 72.8023C57.9713 72.9257 58.1509 73.093 58.2722 73.304C58.3982 73.5174 58.4808 73.7289 58.5199 73.9387L58.9775 73.0573L58.5648 72.8431L59.1603 71.696L61.1817 72.7454L58.9522 77.0401L59.26 77.1999L58.6645 78.347L56.7479 77.3521L56.9948 76.8765C56.8008 76.9652 56.5802 77.0194 56.3332 77.0391C56.0908 77.0613 55.8507 77.0107 55.6129 76.8872ZM56.9377 75.9944C57.073 76.0646 57.1914 76.0816 57.293 76.0456C57.4016 76.0073 57.4959 75.9112 57.5758 75.7573L57.9389 75.0578C58.0188 74.9039 58.0419 74.7739 58.0083 74.6676C57.9818 74.5591 57.9009 74.4698 57.7656 74.3996C57.6304 74.3294 57.5084 74.3134 57.3998 74.3517C57.2982 74.3878 57.2074 74.4827 57.1275 74.6366L56.7644 75.3361C56.6845 75.49 56.6579 75.6212 56.6844 75.7297C56.7181 75.8359 56.8025 75.9242 56.9377 75.9944Z" fill="#E09100"/>
</svg>
