<svg width="13" height="14" viewBox="0 0 13 14" fill="none" xmlns="http://www.w3.org/2000/svg">
<path d="M6.53309 0.347656C7.07159 0.347622 7.58969 0.546916 7.98111 0.904655C8.37253 1.26239 8.6076 1.75146 8.63809 2.27152L8.64133 2.38697H12.0469C12.1702 2.38701 12.2889 2.43231 12.3789 2.51371C12.469 2.59511 12.5238 2.70655 12.5322 2.82551C12.5406 2.94447 12.502 3.06208 12.4242 3.15457C12.3464 3.24707 12.2352 3.30755 12.1131 3.3238L12.0469 3.3282H11.5306L10.7003 11.498C10.6587 11.9053 10.4688 12.2851 10.1644 12.5694C9.86013 12.8538 9.46123 13.0243 9.03898 13.0504L8.92481 13.0542H4.14137C3.71808 13.0542 3.30858 12.9085 2.98606 12.6434C2.66354 12.3782 2.44902 12.0107 2.38083 11.6066L2.36591 11.4974L1.53494 3.3282H1.01923C0.901665 3.32819 0.788076 3.28701 0.699473 3.21226C0.610869 3.13751 0.553245 3.03426 0.537256 2.92159L0.532715 2.85759C0.53272 2.74386 0.575297 2.63399 0.652571 2.54828C0.729846 2.46257 0.836591 2.40683 0.953065 2.39137L1.01923 2.38697H4.42485C4.42485 1.84611 4.64697 1.3274 5.04234 0.944958C5.43771 0.562512 5.97395 0.347656 6.53309 0.347656ZM10.553 3.3282H2.51251L3.3344 11.4051C3.3526 11.5854 3.43471 11.7539 3.56678 11.8823C3.69885 12.0106 3.87276 12.0908 4.05899 12.1092L4.14137 12.1129H8.92481C9.31402 12.1129 9.6442 11.8463 9.71945 11.4842L9.73242 11.4051L10.553 3.3282ZM7.6683 5.05377C7.78586 5.05378 7.89945 5.09496 7.98805 5.16971C8.07666 5.24446 8.13428 5.34771 8.15027 5.46038L8.15481 5.52439V9.91676C8.15477 10.036 8.10795 10.1508 8.02379 10.2379C7.93964 10.325 7.82444 10.378 7.70146 10.3861C7.57848 10.3943 7.45689 10.3569 7.36127 10.2817C7.26565 10.2064 7.20312 10.0989 7.18632 9.98076L7.18178 9.91676V5.52439C7.18178 5.39957 7.23304 5.27987 7.32428 5.19161C7.41552 5.10336 7.53926 5.05377 7.6683 5.05377ZM5.39788 5.05377C5.51545 5.05378 5.62904 5.09496 5.71764 5.16971C5.80625 5.24446 5.86387 5.34771 5.87986 5.46038L5.8844 5.52439V9.91676C5.88436 10.036 5.83754 10.1508 5.75338 10.2379C5.66923 10.325 5.55402 10.378 5.43104 10.3861C5.30806 10.3943 5.18648 10.3569 5.09086 10.2817C4.99524 10.2064 4.93271 10.0989 4.91591 9.98076L4.91137 9.91676V5.52439C4.91137 5.39957 4.96262 5.27987 5.05386 5.19161C5.1451 5.10336 5.26885 5.05377 5.39788 5.05377ZM6.53309 1.28888C6.24819 1.28889 5.97371 1.39252 5.76414 1.5792C5.55456 1.76588 5.42522 2.02197 5.40178 2.29662L5.39788 2.38697H7.6683C7.6683 2.09574 7.54869 1.81644 7.3358 1.6105C7.12291 1.40457 6.83416 1.28888 6.53309 1.28888Z" fill="#BB0000"/>
</svg>
