<svg width="85" height="85" viewBox="0 0 85 85" fill="none" xmlns="http://www.w3.org/2000/svg">
<path d="M21.4231 70.4551L15.5 29H69.5L63.5769 70.4551C63.347 72.0636 62.5446 73.5351 61.317 74.5996C60.0895 75.6641 58.5192 76.2501 56.8944 76.25H28.1056C26.4808 76.2501 24.9105 75.6641 23.683 74.5996C22.4554 73.5351 21.653 72.0636 21.4231 70.4551ZM72.875 15.5H56V12.125C56 11.2299 55.6444 10.3714 55.0115 9.73851C54.3785 9.10558 53.5201 8.75 52.625 8.75H32.375C31.4799 8.75 30.6215 9.10558 29.9885 9.73851C29.3556 10.3714 29 11.2299 29 12.125V15.5H12.125C11.2299 15.5 10.3714 15.8556 9.73851 16.4885C9.10558 17.1215 8.75 17.9799 8.75 18.875C8.75 19.7701 9.10558 20.6285 9.73851 21.2615C10.3714 21.8944 11.2299 22.25 12.125 22.25H72.875C73.7701 22.25 74.6286 21.8944 75.2615 21.2615C75.8944 20.6285 76.25 19.7701 76.25 18.875C76.25 17.9799 75.8944 17.1215 75.2615 16.4885C74.6286 15.8556 73.7701 15.5 72.875 15.5Z" fill="#BB0000"/>
</svg>
