<svg width="22" height="22" viewBox="0 0 22 22" fill="none" xmlns="http://www.w3.org/2000/svg">
<g clip-path="url(#clip0_861_16365)">
<path d="M2.57884 14.177L1.41773 19.1881C1.37767 19.3713 1.37905 19.5612 1.42175 19.7437C1.46445 19.9263 1.5474 20.0971 1.66453 20.2435C1.78167 20.3899 1.93004 20.5083 2.0988 20.59C2.26756 20.6718 2.45244 20.7148 2.63995 20.7159C2.72732 20.7248 2.81536 20.7248 2.90273 20.7159L7.94439 19.5548L17.6244 9.91148L12.2222 4.52148L2.57884 14.177Z" fill="#E49A01"/>
<path d="M20.6679 5.08513L17.0623 1.47958C16.8253 1.24373 16.5045 1.11133 16.1701 1.11133C15.8357 1.11133 15.5149 1.24373 15.2779 1.47958L13.2734 3.48402L18.6695 8.88013L20.674 6.87569C20.7913 6.75779 20.8842 6.61792 20.9474 6.46408C21.0106 6.31024 21.0428 6.14545 21.0422 5.97914C21.0417 5.81283 21.0083 5.64827 20.9441 5.49486C20.8798 5.34146 20.786 5.20222 20.6679 5.08513Z" fill="#E49A01"/>
</g>
<defs>
<clipPath id="clip0_861_16365">
<rect width="22" height="22" fill="white"/>
</clipPath>
</defs>
</svg>
