<svg width="21" height="21" viewBox="0 0 21 21" fill="none" xmlns="http://www.w3.org/2000/svg">
<path d="M18.0798 5.62954C17.4025 4.23905 15.4517 3.10137 13.1826 3.76375C12.0982 4.07712 11.1522 4.74913 10.499 5.66999C9.84573 4.74913 8.89967 4.07712 7.81535 3.76375C5.54111 3.11149 3.59537 4.23905 2.91815 5.62954C1.96802 7.57623 2.36222 9.76563 4.09065 12.137C5.44508 13.9927 7.38071 15.8737 10.1907 18.058C10.2795 18.1273 10.3889 18.1649 10.5015 18.1649C10.6141 18.1649 10.7235 18.1273 10.8123 18.058C13.6172 15.8787 15.5579 14.0129 16.9123 12.137C18.6357 9.76563 19.0299 7.57623 18.0798 5.62954Z" fill="#DB1E54"/>
</svg>
