<svg width="17" height="17" viewBox="0 0 17 17" fill="none" xmlns="http://www.w3.org/2000/svg">
<path d="M14.6368 4.55731C14.0886 3.43167 12.5094 2.51069 10.6724 3.04691C9.79464 3.30058 9.02878 3.84459 8.49999 4.59005C7.97119 3.84459 7.20534 3.30058 6.32755 3.04691C4.48649 2.51888 2.91137 3.43167 2.36315 4.55731C1.594 6.1332 1.91311 7.90557 3.31231 9.82529C4.40876 11.3275 5.9757 12.8502 8.25042 14.6185C8.32231 14.6746 8.41087 14.705 8.50203 14.705C8.5932 14.705 8.68176 14.6746 8.75364 14.6185C11.0243 12.8543 12.5953 11.3439 13.6918 9.82529C15.0869 7.90557 15.406 6.1332 14.6368 4.55731Z" fill="#DB1E54"/>
</svg>
