<svg width="17" height="17" viewBox="0 0 17 17" fill="none" xmlns="http://www.w3.org/2000/svg">
<path d="M14.4076 4.66896L14.4077 4.66915C15.1209 6.13049 14.8478 7.80078 13.4855 9.67538L13.485 9.67602C12.4087 11.1667 10.8589 12.6599 8.59719 14.4171L8.59677 14.4174C8.56969 14.4385 8.53635 14.45 8.50203 14.45C8.46772 14.45 8.43438 14.4385 8.40729 14.4174L8.40692 14.4171C6.14203 12.6565 4.59529 11.1505 3.51828 9.67495C2.15213 7.80051 1.87913 6.13036 2.59231 4.66915L2.5924 4.66896C3.08508 3.65737 4.53218 2.79737 6.25702 3.29196C7.07924 3.52964 7.79664 4.03925 8.292 4.73759L8.49999 5.03079L8.70797 4.73759C9.20339 4.03918 9.92089 3.52953 10.7432 3.29188L10.7439 3.29169C12.463 2.78987 13.9144 3.65642 14.4076 4.66896Z" stroke="#DB1E54" stroke-width="0.51"/>
</svg>
