<svg width="21" height="21" viewBox="0 0 21 21" fill="none" xmlns="http://www.w3.org/2000/svg">
<path d="M17.6322 5.84847L17.6324 5.84885C18.4729 7.57092 18.1689 9.56016 16.5098 11.8431L16.5089 11.8444C15.194 13.6655 13.2948 15.4976 10.5075 17.6632L10.5066 17.6638C10.5057 17.6646 10.5046 17.6649 10.5034 17.6649C10.5023 17.6649 10.5012 17.6646 10.5002 17.6638L10.4995 17.6633C7.7088 15.4939 5.81279 13.6457 4.49646 11.8423C2.83284 9.55963 2.52906 7.57068 3.36944 5.84885L3.36962 5.84847C3.93792 4.68162 5.63259 3.65758 7.67893 4.24423C8.65434 4.52622 9.5054 5.1308 10.0931 5.95928L10.5009 6.53419L10.9087 5.95928C11.4965 5.13067 12.3477 4.52604 13.3233 4.2441L13.3246 4.24372C15.3628 3.64877 17.063 4.67974 17.6322 5.84847Z" stroke="#DB1E54"/>
</svg>
