<svg width="24" height="26" viewBox="0 0 24 26" fill="none" xmlns="http://www.w3.org/2000/svg">
<path d="M3.69231 0.5V18.7692C3.69231 19.3029 3.28154 19.7308 2.76923 19.7308C2.25692 19.7308 1.84615 19.3029 1.84615 18.7692V7.23077H2.76923V5.30769H0V18.7692C0 20.351 1.25077 21.6538 2.76923 21.6538H12C11.8154 21.0769 11.7111 20.4038 11.7111 19.7308H5.36677C5.472 19.4269 5.53938 19.1087 5.53938 18.7692V2.42308H20.3086V13C20.9548 13.1923 21.6009 13.4808 22.1548 13.9615V0.5H3.69231ZM7.38462 4.34615V8.19231H18.4615V4.34615H7.38462ZM7.38462 10.1154V12.0385H12V10.1154H7.38462ZM13.8462 10.1154V12.0385H18.4615V10.1154H13.8462ZM7.38462 13V14.9231H12V13H7.38462ZM18.4615 13.9615C15.3932 13.9615 12.9231 16.5346 12.9231 19.7308C12.9231 22.9269 15.3932 25.5 18.4615 25.5V23.5769C16.3606 23.5769 14.7692 21.9192 14.7692 19.7308C14.7692 17.5423 16.3606 15.8846 18.4615 15.8846C20.5625 15.8846 22.1538 17.5423 22.1538 19.7308C22.1538 20.5654 21.9258 21.3365 21.5188 21.9548L20.3077 20.6923L19.8462 25.0192L24 24.5385L22.8462 23.3365C23.6132 22.3327 24 21.0548 24 19.7308C24 16.5346 21.5298 13.9615 18.4615 13.9615ZM7.38462 15.8846V17.8077H12V15.8846H7.38462Z" fill="black"/>
</svg>
