<svg width="26" height="26" viewBox="0 0 26 26" fill="none" xmlns="http://www.w3.org/2000/svg">
<path d="M14.0827 2.1665C11.0912 2.1665 8.66602 4.59163 8.66602 7.58317C8.66602 8.18147 9.15104 8.6665 9.74935 8.6665C10.3477 8.6665 10.8327 8.18147 10.8327 7.58317C10.8327 5.78825 12.2878 4.33317 14.0827 4.33317H18.416C20.211 4.33317 21.666 5.78825 21.666 7.58317V18.4165C21.666 20.2115 20.211 21.6665 18.416 21.6665H14.0827C12.2878 21.6665 10.8327 20.2115 10.8327 18.4165C10.8327 17.8182 10.3477 17.3332 9.74935 17.3332C9.15104 17.3332 8.66602 17.8182 8.66602 18.4165C8.66602 21.408 11.0912 23.8332 14.0827 23.8332H18.416C21.4075 23.8332 23.8327 21.408 23.8327 18.4165V7.58317C23.8327 4.59163 21.4075 2.1665 18.416 2.1665H14.0827Z" fill="black"/>
<path d="M15.166 11.9165C15.7643 11.9165 16.2493 12.4015 16.2493 12.9998C16.2493 13.5982 15.7643 14.0832 15.166 14.0832V11.9165Z" fill="black"/>
<path d="M6.19458 11.9166C6.29102 11.7976 6.38342 11.6823 6.47082 11.5721C6.73677 11.2366 6.96193 10.942 7.12092 10.7309C7.20049 10.6252 7.26367 10.5402 7.3073 10.4811L7.35775 10.4125L7.37127 10.394L7.37606 10.3874C7.3761 10.3874 7.3766 10.3867 6.50017 9.74992L7.37606 10.3874C7.72773 9.90339 7.62098 9.22516 7.13693 8.87348C6.65292 8.52182 5.97548 8.6291 5.62379 9.11308L5.62073 9.11727L5.60964 9.13244L5.5644 9.19394C5.52438 9.24814 5.46521 9.32777 5.39002 9.42762C5.23952 9.62752 5.02557 9.90745 4.77308 10.2259C4.26257 10.8698 3.61599 11.6437 3.0258 12.2339L2.25977 12.9999L3.0258 13.7659C3.61599 14.3561 4.26257 15.1301 4.77308 15.7739C5.02557 16.0924 5.23952 16.3723 5.39002 16.5722C5.46521 16.6721 5.52438 16.7517 5.5644 16.8059L5.60964 16.8674L5.62073 16.8826L5.62326 16.886C5.97495 17.37 6.65292 17.478 7.13693 17.1263C7.62098 16.7747 7.72828 16.0972 7.3766 15.6131L6.50017 16.2499C7.3766 15.6131 7.37665 15.6132 7.3766 15.6131L7.37127 15.6059L7.35775 15.5873L7.3073 15.5188C7.26367 15.4596 7.20049 15.3747 7.12092 15.269C6.96193 15.0578 6.73677 14.7633 6.47082 14.4277C6.38342 14.3176 6.29102 14.2022 6.19458 14.0832H15.1668V11.9166H6.19458Z" fill="black"/>
</svg>
