<svg width="24" height="24" viewBox="0 0 24 24" fill="none" xmlns="http://www.w3.org/2000/svg">
<path d="M11.0496 16.3497C11.0495 16.3496 11.0494 16.3495 11.0493 16.3495L3.75 10.875V17.5C3.75 18.4651 4.53374 19.25 5.5 19.25H20.5C21.4647 19.25 22.25 18.4647 22.25 17.5V10.875L14.9507 16.3495L11.0496 16.3497ZM11.0496 16.3497C11.612 16.7724 12.2965 17.001 13 17.001M11.0496 16.3497L13 17.001M13 17.001C13.7034 17.001 14.3877 16.7725 14.95 16.35L13 17.001ZM21.125 5.75C21.746 5.75 22.25 6.25377 22.25 6.875C22.25 7.22819 22.0843 7.56099 21.7997 7.77523C21.7995 7.77535 21.7994 7.77547 21.7992 7.77559L13.3014 14.149C13.3012 14.1491 13.3011 14.1492 13.3009 14.1493C13.2139 14.2141 13.1084 14.249 13 14.249C12.8916 14.249 12.7861 14.2141 12.6992 14.1494C12.699 14.1492 12.6988 14.1491 12.6986 14.149L4.2011 7.77583C4.20095 7.77571 4.2008 7.7756 4.20065 7.77548C3.91598 7.56095 3.75 7.22783 3.75 6.875C3.75 6.25367 4.25367 5.75 4.875 5.75H21.125Z" stroke="black" stroke-width="1.5"/>
</svg>
