<svg width="200" height="200" viewBox="0 0 200 200" fill="none" xmlns="http://www.w3.org/2000/svg">
<path d="M175.429 28.5717L175.59 28.732C176.081 29.2824 176.418 29.9541 176.566 30.6796C176.729 31.4819 176.654 32.3147 176.348 33.0743L176.347 33.0758L118.992 176.476C118.538 177.61 117.78 178.598 116.801 179.329C115.822 180.061 114.66 180.508 113.443 180.621C112.226 180.735 111.002 180.511 109.904 179.973C108.806 179.435 107.879 178.605 107.222 177.574L75.8985 128.335L75.809 128.194L75.6683 128.105L26.4353 96.7769L26.4344 96.7764C25.401 96.1208 24.5688 95.1924 24.0296 94.0936C23.4904 92.9949 23.2652 91.7685 23.3788 90.5498C23.4924 89.3312 23.9404 88.1676 24.6734 87.1875C25.4064 86.2074 26.3959 85.4488 27.5326 84.9956L27.5334 84.9953L170.915 27.6531L170.917 27.6524C171.676 27.3466 172.509 27.2708 173.311 27.4342C174.113 27.5976 174.85 27.9932 175.429 28.5717ZM84.5721 125.329L84.1467 125.754L84.4697 126.262L111.683 169.024L112.469 170.259L113.013 168.9L159.663 52.2639L158.436 51.4551L84.5721 125.329ZM152.529 45.5463L151.72 44.3196L35.098 90.9761L33.7392 91.5197L34.974 92.3053L77.7412 119.513L78.2488 119.835L78.6741 119.41L152.529 45.5463Z" fill="black" stroke="black" stroke-width="1.5"/>
</svg>
