<svg width="28" height="29" viewBox="0 0 28 29" fill="none" xmlns="http://www.w3.org/2000/svg">
<path d="M14.1405 15.4424C14.0588 15.4304 13.9538 15.4304 13.8605 15.4424C11.8072 15.3699 10.1738 13.6299 10.1738 11.4912C10.1738 9.30408 11.8772 7.52783 14.0005 7.52783C16.1122 7.52783 17.8272 9.30408 17.8272 11.4912C17.8155 13.6299 16.1938 15.3699 14.1405 15.4424Z" stroke="black" stroke-width="1.5" stroke-linecap="round" stroke-linejoin="round"/>
<path d="M21.8634 23.4178C19.7868 25.3873 17.0334 26.5836 14.0001 26.5836C10.9667 26.5836 8.21339 25.3873 6.13672 23.4178C6.25339 22.2819 6.95339 21.1703 8.20172 20.3003C11.3984 18.1011 16.6251 18.1011 19.7984 20.3003C21.0468 21.1703 21.7468 22.2819 21.8634 23.4178Z" stroke="black" stroke-width="1.5" stroke-linecap="round" stroke-linejoin="round"/>
<path d="M14.0007 26.5832C20.4439 26.5832 25.6673 21.1732 25.6673 14.4998C25.6673 7.82639 20.4439 2.4165 14.0007 2.4165C7.55733 2.4165 2.33398 7.82639 2.33398 14.4998C2.33398 21.1732 7.55733 26.5832 14.0007 26.5832Z" stroke="black" stroke-width="1.5" stroke-linecap="round" stroke-linejoin="round"/>
</svg>
