<svg width="200" height="200" viewBox="0 0 200 200" fill="none" xmlns="http://www.w3.org/2000/svg">
<path d="M169.5 54.9288L169.501 54.9311C177.892 72.1232 174.679 91.7737 158.652 113.828L158.646 113.835C145.984 131.372 127.75 148.94 101.143 169.613L101.138 169.617C100.819 169.865 100.427 170 100.023 170C99.6193 170 99.227 169.865 98.9084 169.617L98.9041 169.613C72.2591 148.9 54.0625 131.184 41.3918 113.824C25.3184 91.7715 22.1063 72.1222 30.4968 54.9311L30.4979 54.9288C36.2941 43.0279 53.3185 32.9103 73.6105 38.7286C83.284 41.5248 91.7241 47.5203 97.552 55.7362L99.9989 59.1856L102.446 55.7362C108.274 47.5196 116.715 41.5237 126.39 38.7279L126.398 38.7256C146.623 32.8218 163.698 43.0166 169.5 54.9288Z" stroke="black" stroke-width="6"/>
</svg>
