<svg width="85" height="85" viewBox="0 0 85 85" fill="none" xmlns="http://www.w3.org/2000/svg">
<path d="M42.5 5.3125C52.3627 5.3125 61.8215 9.23046 68.7955 16.2045C75.7695 23.1785 79.6875 32.6373 79.6875 42.5C79.6875 52.3627 75.7695 61.8215 68.7955 68.7955C61.8215 75.7695 52.3627 79.6875 42.5 79.6875C32.6373 79.6875 23.1785 75.7695 16.2045 68.7955C9.23046 61.8215 5.3125 52.3627 5.3125 42.5C5.3125 32.6373 9.23046 23.1785 16.2045 16.2045C23.1785 9.23046 32.6373 5.3125 42.5 5.3125ZM42.5 21.25C41.8255 21.2494 41.1583 21.3895 40.5411 21.6614C39.9238 21.9332 39.37 22.3308 38.9151 22.8287C38.4601 23.3266 38.114 23.914 37.8989 24.5532C37.6838 25.1925 37.6043 25.8696 37.6656 26.5412L39.6047 47.8231C39.6799 48.5386 40.0173 49.201 40.552 49.6824C41.0866 50.1638 41.7806 50.4302 42.5 50.4302C43.2194 50.4302 43.9134 50.1638 44.448 49.6824C44.9827 49.201 45.3201 48.5386 45.3953 47.8231L47.3291 26.5412C47.3903 25.87 47.311 25.1934 47.0962 24.5545C46.8814 23.9156 46.5358 23.3285 46.0814 22.8307C45.627 22.3328 45.0739 21.9351 44.4573 21.663C43.8406 21.3908 43.174 21.2502 42.5 21.25ZM42.5 63.75C43.6272 63.75 44.7082 63.3022 45.5052 62.5052C46.3022 61.7082 46.75 60.6272 46.75 59.5C46.75 58.3728 46.3022 57.2918 45.5052 56.4948C44.7082 55.6978 43.6272 55.25 42.5 55.25C41.3728 55.25 40.2918 55.6978 39.4948 56.4948C38.6978 57.2918 38.25 58.3728 38.25 59.5C38.25 60.6272 38.6978 61.7082 39.4948 62.5052C40.2918 63.3022 41.3728 63.75 42.5 63.75Z" fill="#BB0000"/>
</svg>
