<svg width="25" height="25" viewBox="0 0 25 25" fill="none" xmlns="http://www.w3.org/2000/svg">
<path d="M9.37533 5.20796C9.09906 5.20796 8.83411 5.3177 8.63876 5.51305C8.44341 5.7084 8.33366 5.97336 8.33366 6.24962C8.33366 6.52589 8.44341 6.79084 8.63876 6.98619C8.83411 7.18154 9.09906 7.29129 9.37533 7.29129C9.65159 7.29129 9.91654 7.18154 10.1119 6.98619C10.3072 6.79084 10.417 6.52589 10.417 6.24962C10.417 5.97336 10.3072 5.7084 10.1119 5.51305C9.91654 5.3177 9.65159 5.20796 9.37533 5.20796ZM6.42741 5.20796C6.64262 4.59803 7.04172 4.06987 7.5697 3.69628C8.09768 3.32269 8.72854 3.12207 9.37533 3.12207C10.0221 3.12207 10.653 3.32269 11.181 3.69628C11.7089 4.06987 12.108 4.59803 12.3232 5.20796H19.792C20.0683 5.20796 20.3332 5.3177 20.5286 5.51305C20.7239 5.7084 20.8337 5.97336 20.8337 6.24962C20.8337 6.52589 20.7239 6.79084 20.5286 6.98619C20.3332 7.18154 20.0683 7.29129 19.792 7.29129H12.3232C12.108 7.90122 11.7089 8.42938 11.181 8.80297C10.653 9.17656 10.0221 9.37718 9.37533 9.37718C8.72854 9.37718 8.09768 9.17656 7.5697 8.80297C7.04172 8.42938 6.64262 7.90122 6.42741 7.29129H5.20866C4.93239 7.29129 4.66744 7.18154 4.47209 6.98619C4.27674 6.79084 4.16699 6.52589 4.16699 6.24962C4.16699 5.97336 4.27674 5.7084 4.47209 5.51305C4.66744 5.3177 4.93239 5.20796 5.20866 5.20796H6.42741ZM15.6253 11.458C15.3491 11.458 15.0841 11.5677 14.8888 11.7631C14.6934 11.9584 14.5837 12.2234 14.5837 12.4996C14.5837 12.7759 14.6934 13.0408 14.8888 13.2362C15.0841 13.4315 15.3491 13.5413 15.6253 13.5413C15.9016 13.5413 16.1665 13.4315 16.3619 13.2362C16.5572 13.0408 16.667 12.7759 16.667 12.4996C16.667 12.2234 16.5572 11.9584 16.3619 11.7631C16.1665 11.5677 15.9016 11.458 15.6253 11.458ZM12.6774 11.458C12.8926 10.848 13.2917 10.3199 13.8197 9.94628C14.3477 9.57269 14.9785 9.37207 15.6253 9.37207C16.2721 9.37207 16.903 9.57269 17.431 9.94628C17.9589 10.3199 18.358 10.848 18.5732 11.458H19.792C20.0683 11.458 20.3332 11.5677 20.5286 11.7631C20.7239 11.9584 20.8337 12.2234 20.8337 12.4996C20.8337 12.7759 20.7239 13.0408 20.5286 13.2362C20.3332 13.4315 20.0683 13.5413 19.792 13.5413H18.5732C18.358 14.1512 17.9589 14.6794 17.431 15.053C16.903 15.4266 16.2721 15.6272 15.6253 15.6272C14.9785 15.6272 14.3477 15.4266 13.8197 15.053C13.2917 14.6794 12.8926 14.1512 12.6774 13.5413H5.20866C4.93239 13.5413 4.66744 13.4315 4.47209 13.2362C4.27674 13.0408 4.16699 12.7759 4.16699 12.4996C4.16699 12.2234 4.27674 11.9584 4.47209 11.7631C4.66744 11.5677 4.93239 11.458 5.20866 11.458H12.6774ZM9.37533 17.708C9.09906 17.708 8.83411 17.8177 8.63876 18.0131C8.44341 18.2084 8.33366 18.4734 8.33366 18.7496C8.33366 19.0259 8.44341 19.2908 8.63876 19.4862C8.83411 19.6815 9.09906 19.7913 9.37533 19.7913C9.65159 19.7913 9.91654 19.6815 10.1119 19.4862C10.3072 19.2908 10.417 19.0259 10.417 18.7496C10.417 18.4734 10.3072 18.2084 10.1119 18.0131C9.91654 17.8177 9.65159 17.708 9.37533 17.708ZM6.42741 17.708C6.64262 17.098 7.04172 16.5699 7.5697 16.1963C8.09768 15.8227 8.72854 15.6221 9.37533 15.6221C10.0221 15.6221 10.653 15.8227 11.181 16.1963C11.7089 16.5699 12.108 17.098 12.3232 17.708H19.792C20.0683 17.708 20.3332 17.8177 20.5286 18.0131C20.7239 18.2084 20.8337 18.4734 20.8337 18.7496C20.8337 19.0259 20.7239 19.2908 20.5286 19.4862C20.3332 19.6815 20.0683 19.7913 19.792 19.7913H12.3232C12.108 20.4012 11.7089 20.9294 11.181 21.303C10.653 21.6766 10.0221 21.8772 9.37533 21.8772C8.72854 21.8772 8.09768 21.6766 7.5697 21.303C7.04172 20.9294 6.64262 20.4012 6.42741 19.7913H5.20866C4.93239 19.7913 4.66744 19.6815 4.47209 19.4862C4.27674 19.2908 4.16699 19.0259 4.16699 18.7496C4.16699 18.4734 4.27674 18.2084 4.47209 18.0131C4.66744 17.8177 4.93239 17.708 5.20866 17.708H6.42741Z" fill="white"/>
</svg>
