<svg width="13" height="14" viewBox="0 0 13 14" fill="none" xmlns="http://www.w3.org/2000/svg">
<path d="M6.55994 0.347656C7.09845 0.347622 7.61655 0.546916 8.00797 0.904655C8.39939 1.26239 8.63445 1.75146 8.66494 2.27152L8.66818 2.38697H12.0738C12.1971 2.38701 12.3157 2.43231 12.4058 2.51371C12.4959 2.59511 12.5506 2.70655 12.559 2.82551C12.5674 2.94447 12.5288 3.06208 12.4511 3.15457C12.3733 3.24707 12.2621 3.30755 12.14 3.3238L12.0738 3.3282H11.5574L10.7271 11.498C10.6855 11.9053 10.4956 12.2851 10.1913 12.5694C9.88698 12.8538 9.48808 13.0243 9.06583 13.0504L8.95166 13.0542H4.16823C3.74493 13.0542 3.33544 12.9085 3.01292 12.6434C2.6904 12.3782 2.47587 12.0107 2.40769 11.6066L2.39277 11.4974L1.5618 3.3282H1.04609C0.92852 3.32819 0.814932 3.28701 0.726328 3.21226C0.637725 3.13751 0.5801 3.03426 0.564111 2.92159L0.55957 2.85759C0.559575 2.74386 0.602152 2.63399 0.679427 2.54828C0.756701 2.46257 0.863446 2.40683 0.979921 2.39137L1.04609 2.38697H4.4517C4.4517 1.84611 4.67382 1.3274 5.06919 0.944958C5.46457 0.562512 6.0008 0.347656 6.55994 0.347656ZM10.5799 3.3282H2.53937L3.36126 11.4051C3.37946 11.5854 3.46156 11.7539 3.59363 11.8823C3.72571 12.0106 3.89962 12.0908 4.08584 12.1092L4.16823 12.1129H8.95166C9.34087 12.1129 9.67106 11.8463 9.74631 11.4842L9.75928 11.4051L10.5799 3.3282ZM7.69515 5.05377C7.81272 5.05378 7.92631 5.09496 8.01491 5.16971C8.10351 5.24446 8.16114 5.34771 8.17713 5.46038L8.18167 5.52439V9.91676C8.18163 10.036 8.1348 10.1508 8.05065 10.2379C7.9665 10.325 7.85129 10.378 7.72831 10.3861C7.60533 10.3943 7.48375 10.3569 7.38813 10.2817C7.29251 10.2064 7.22998 10.0989 7.21317 9.98076L7.20863 9.91676V5.52439C7.20863 5.39957 7.25989 5.27987 7.35113 5.19161C7.44237 5.10336 7.56612 5.05377 7.69515 5.05377ZM5.42474 5.05377C5.54231 5.05378 5.65589 5.09496 5.7445 5.16971C5.8331 5.24446 5.89073 5.34771 5.90671 5.46038L5.91126 5.52439V9.91676C5.91122 10.036 5.86439 10.1508 5.78024 10.2379C5.69608 10.325 5.58088 10.378 5.4579 10.3861C5.33492 10.3943 5.21334 10.3569 5.11771 10.2817C5.02209 10.2064 4.95956 10.0989 4.94276 9.98076L4.93822 9.91676V5.52439C4.93822 5.39957 4.98948 5.27987 5.08072 5.19161C5.17196 5.10336 5.29571 5.05377 5.42474 5.05377ZM6.55994 1.28888C6.27505 1.28889 6.00057 1.39252 5.79099 1.5792C5.58142 1.76588 5.45207 2.02197 5.42863 2.29662L5.42474 2.38697H7.69515C7.69515 2.09574 7.57555 1.81644 7.36266 1.6105C7.14976 1.40457 6.86102 1.28888 6.55994 1.28888Z" fill="#BB0000"/>
</svg>
