<svg width="16" height="16" viewBox="0 0 16 16" fill="none" xmlns="http://www.w3.org/2000/svg">
<g clip-path="url(#clip0_1312_147)">
<path d="M6.45526 10.9857C6.45514 10.9856 6.45502 10.9855 6.4549 10.9854L1.09646 6.96657V11.8442C1.09646 12.5616 1.67896 13.145 2.39717 13.145H13.3232C14.0402 13.145 14.6239 12.5613 14.6239 11.8442V6.96657L9.26542 10.9854C9.26538 10.9854 9.26533 10.9855 9.26529 10.9855C8.86014 11.2901 8.36701 11.4547 7.86016 11.4547C7.3534 11.4547 6.86036 11.2901 6.45526 10.9857ZM6.45526 10.9857L6.45539 10.9858L6.76756 10.5695L6.45526 10.9857ZM13.7784 3.25954C14.2451 3.25954 14.6239 3.63813 14.6239 4.10501C14.6239 4.37046 14.4993 4.62055 14.2855 4.7815C14.2854 4.7816 14.2853 4.78169 14.2851 4.78179L8.09526 9.42419C8.09515 9.42428 8.09503 9.42436 8.09492 9.42445C8.02708 9.47497 7.94475 9.50225 7.86016 9.50225C7.77556 9.50225 7.69323 9.47496 7.62538 9.42443C7.62528 9.42435 7.62517 9.42427 7.62506 9.42419L1.43541 4.78195C1.43529 4.78186 1.43517 4.78177 1.43505 4.78168C1.22123 4.62053 1.09646 4.37021 1.09646 4.10501C1.09646 3.63806 1.47497 3.25954 1.94192 3.25954H13.7784Z" stroke="#E49A01" stroke-width="1.04057"/>
</g>
<defs>
<clipPath id="clip0_1312_147">
<rect width="14.568" height="14.568" fill="white" transform="translate(0.576172 0.918945)"/>
</clipPath>
</defs>
</svg>
