<svg width="20" height="21" viewBox="0 0 20 21" fill="none" xmlns="http://www.w3.org/2000/svg">
<path d="M10 0C4.47 0 0 4.65625 0 10.4167C0 16.1771 4.47 20.8333 10 20.8333C15.53 20.8333 20 16.1771 20 10.4167C20 4.65625 15.53 0 10 0ZM14.3 14.8958C13.91 15.3021 13.28 15.3021 12.89 14.8958L10 11.8854L7.11 14.8958C6.72 15.3021 6.09 15.3021 5.7 14.8958C5.31 14.4896 5.31 13.8333 5.7 13.4271L8.59 10.4167L5.7 7.40625C5.31 7 5.31 6.34375 5.7 5.9375C6.09 5.53125 6.72 5.53125 7.11 5.9375L10 8.94792L12.89 5.9375C13.28 5.53125 13.91 5.53125 14.3 5.9375C14.69 6.34375 14.69 7 14.3 7.40625L11.41 10.4167L14.3 13.4271C14.68 13.8229 14.68 14.4896 14.3 14.8958Z" fill="#E49A01"/>
</svg>
