<svg width="71" height="71" viewBox="0 0 71 71" fill="none" xmlns="http://www.w3.org/2000/svg">
<path d="M64.3438 8.875C68.0186 8.875 71 11.8551 71 15.5312C71 17.6252 70.0154 19.5943 68.3375 20.8562L38.1625 43.4875C37.3935 44.0615 36.4596 44.3715 35.5 44.3715C34.5404 44.3715 33.6065 44.0615 32.8375 43.4875L2.6625 20.8562C0.986373 19.5943 0 17.6252 0 15.5312C0 11.8551 2.98006 8.875 6.65625 8.875H64.3438ZM30.175 47.0375C31.7103 48.1918 33.5792 48.816 35.5 48.816C37.4208 48.816 39.2897 48.1918 40.825 47.0375L71 24.4062V53.25C71 58.1451 67.0201 62.125 62.125 62.125H8.875C3.97295 62.125 0 58.1451 0 53.25V24.4062L30.175 47.0375Z" fill="#197E00"/>
</svg>
